<svg id="eat3rvuy9qb1" xmlns="http://www.w3.org/2000/svg" xmlns:xlink="http://www.w3.org/1999/xlink" viewBox="0 0 800 650" shape-rendering="geometricPrecision" text-rendering="geometricPrecision"><defs><clipPath id="eat3rvuy9qb2"><path id="eat3rvuy9qb3" d="M486.568000,216.611000L550.060000,263.216000L549.289000,546.080000L485.575000,545.842000L486.568000,216.611000ZM482.087000,219.040000L453.625000,252.470000L452.890000,546.013000L481.244000,546.161000L482.087000,219.040000Z" clip-rule="evenodd" fill="rgb(0,0,0)" fill-rule="evenodd" stroke="none" stroke-width="1" stroke-linecap="round" stroke-linejoin="round" stroke-miterlimit="1.500000"/></clipPath><clipPath id="eat3rvuy9qb4"><path id="eat3rvuy9qb5" d="M642.143000,337.278000L655.355000,342.056000L655.355000,439.516000L642.143000,439.516000L642.143000,337.278000Z" clip-rule="evenodd" fill="rgb(0,0,0)" fill-rule="evenodd" stroke="none" stroke-width="1" stroke-linecap="round" stroke-linejoin="round" stroke-miterlimit="1.500000"/></clipPath><clipPath id="eat3rvuy9qb6"><path id="eat3rvuy9qb7" d="M645.691000,355.692000L666.610000,364.168000L666.610000,439.516000L645.691000,439.516000L645.691000,355.692000Z" clip-rule="evenodd" fill="rgb(0,0,0)" fill-rule="evenodd" stroke="none" stroke-width="1" stroke-linecap="round" stroke-linejoin="round" stroke-miterlimit="1.500000"/></clipPath><clipPath id="eat3rvuy9qb8"><path id="eat3rvuy9qb9" d="M649.697000,397.788000L664.633000,393.248000L691.400000,405.099000L691.400000,439.516000L652.594000,439.516000L649.697000,397.788000Z" clip-rule="evenodd" fill="rgb(0,0,0)" fill-rule="evenodd" stroke="none" stroke-width="1" stroke-linecap="round" stroke-linejoin="round" stroke-miterlimit="1.500000"/></clipPath><clipPath id="eat3rvuy9qb10"><path id="eat3rvuy9qb11" d="M378.429000,466.372000L431.891000,483.196000L467.135000,542.565000L423.719000,542.440000L331.405000,542.902000L329.260000,545.993000L324.855000,542.935000L375.391000,470.132000L375.578000,470.447000L378.429000,466.372000Z" clip-rule="evenodd" fill="rgb(0,0,0)" fill-rule="evenodd" stroke="none" stroke-width="1" stroke-linecap="round" stroke-linejoin="round" stroke-miterlimit="1.500000"/></clipPath><clipPath id="eat3rvuy9qb12"><path id="eat3rvuy9qb13" d="M353.864000,415.593000C401.053000,442.651000,402.535000,523.811000,400,589.625000L307.727000,589.625000C305.537000,525.051000,309.374000,447.886000,353.864000,415.593000Z" clip-rule="evenodd" fill="rgb(0,0,0)" fill-rule="evenodd" stroke="none" stroke-width="1" stroke-linecap="round" stroke-linejoin="round" stroke-miterlimit="1.500000"/></clipPath><clipPath id="eat3rvuy9qb14"><path id="eat3rvuy9qb15" d="M353.864000,415.593000C401.053000,442.651000,402.535000,523.811000,400,589.625000L307.727000,589.625000C305.537000,525.051000,309.374000,447.886000,353.864000,415.593000Z" clip-rule="evenodd" fill="rgb(0,0,0)" fill-rule="evenodd" stroke="none" stroke-width="1" stroke-linecap="round" stroke-linejoin="round" stroke-miterlimit="1.500000"/></clipPath><clipPath id="eat3rvuy9qb16"><path id="eat3rvuy9qb17" d="M353.864000,415.593000C401.053000,442.651000,402.535000,523.811000,400,589.625000L307.727000,589.625000C305.537000,525.051000,309.374000,447.886000,353.864000,415.593000Z" clip-rule="evenodd" fill="rgb(0,0,0)" fill-rule="evenodd" stroke="none" stroke-width="1" stroke-linecap="round" stroke-linejoin="round" stroke-miterlimit="1.500000"/></clipPath><clipPath id="eat3rvuy9qb18"><path id="eat3rvuy9qb19" d="M353.864000,415.593000C401.053000,442.651000,402.535000,523.811000,400,589.625000L307.727000,589.625000C305.537000,525.051000,309.374000,447.886000,353.864000,415.593000Z" clip-rule="evenodd" fill="rgb(0,0,0)" fill-rule="evenodd" stroke="none" stroke-width="1" stroke-linecap="round" stroke-linejoin="round" stroke-miterlimit="1.500000"/></clipPath><clipPath id="eat3rvuy9qb20"><rect id="eat3rvuy9qb21" width="49.898000" height="93.407000" rx="0" ry="0" transform="matrix(1 0 0 1 455.93299999999999 123.14800000000000)" clip-rule="evenodd" fill="rgb(0,0,0)" fill-rule="evenodd" stroke="none" stroke-width="1" stroke-linecap="round" stroke-linejoin="round" stroke-miterlimit="1.500000"/></clipPath><clipPath id="eat3rvuy9qb22"><path id="eat3rvuy9qb23" d="M471.416000,104.829000L555.301000,78.108000L556.546000,81.906000L484.371000,104.866000L550.306000,105.092000L550.248000,123.534000L454.476000,123.370000L471.416000,104.829000Z" clip-rule="evenodd" fill="rgb(0,0,0)" fill-rule="evenodd" stroke="none" stroke-width="1" stroke-linecap="round" stroke-linejoin="round" stroke-miterlimit="1.500000"/></clipPath><clipPath id="eat3rvuy9qb24"><path id="eat3rvuy9qb25" d="M610.369000,105.248000L576.972000,81.473000L579.236000,78.365000L617.740000,105.542000L617.660000,123.844000L579.191000,123.710000L579.242000,105.125000L610.369000,105.248000Z" clip-rule="evenodd" fill="rgb(0,0,0)" fill-rule="evenodd" stroke="none" stroke-width="1" stroke-linecap="round" stroke-linejoin="round" stroke-miterlimit="1.500000"/></clipPath><clipPath id="eat3rvuy9qb26"><path id="eat3rvuy9qb27" d="M579.521000,242.840000L553.595000,242.732000L552.272000,545.716000L578.356000,545.809000L579.521000,242.840000Z" clip-rule="evenodd" fill="rgb(0,0,0)" fill-rule="evenodd" stroke="none" stroke-width="1" stroke-linecap="round" stroke-linejoin="round" stroke-miterlimit="1.500000"/></clipPath><clipPath id="eat3rvuy9qb28"><path id="eat3rvuy9qb29" d="M615.407000,467.735000C628.966000,465.388000,642.920000,464.173000,657.156000,464.173000C671.392000,464.173000,685.347000,465.388000,698.906000,467.735000C685.231000,466.300000,671.295000,465.566000,657.156000,465.566000C643.018000,465.566000,629.081000,466.300000,615.407000,467.735000Z" clip-rule="evenodd" fill="rgb(0,0,0)" fill-rule="evenodd" stroke="none" stroke-width="1" stroke-linecap="round" stroke-linejoin="round" stroke-miterlimit="1.500000"/></clipPath><clipPath id="eat3rvuy9qb30"><path id="eat3rvuy9qb31" d="M-1.222000,650L-1.222000,0L800,0L800,650L-1.222000,650ZM487.420000,400.435000L487.793000,263.829000L424.301000,217.223000L391.357000,253.083000L391.166000,329.395000L386.346000,327.560000L386.483000,279.764000L340.089000,266.653000L339.703000,400.435000L487.420000,400.435000ZM533.145000,163.906000C528.225000,160.930000,523.193000,158.110000,518.061000,155.457000L518.141000,124.327000L555.392000,124.456000L555.473000,106.154000L518.256000,79.887000L518.260000,78.528000L491.327000,78.361000L491.325000,79.265000L409.148000,105.442000L392.208000,123.983000L410.881000,124.015000L410.873000,126.918000C407.292000,126.760000,403.677000,126.675000,400.044000,126.664000C375.129000,126.592000,351.020000,130.047000,328.186000,136.558000L328.186000,163.909000C350.816000,156.721000,374.942000,152.872000,399.968000,152.944000C403.597000,152.955000,407.207000,153.047000,410.797000,153.221000L410.784000,157.721000L403.913000,157.701000L417.470000,181.801000C417.365000,182.188000,417.219000,182.533000,417.015000,182.770000C415.824000,184.155000,412.359000,184.817000,410.575000,187.263000C406.907000,192.291000,408.011000,199.351000,413.039000,203.018000C418.067000,206.686000,425.127000,205.582000,428.794000,200.554000C429.072000,200.174000,429.322000,199.782000,429.545000,199.380000C429.783000,199.012000,429.921000,198.575000,429.923000,198.105000C429.926000,196.797000,428.868000,195.732000,427.560000,195.728000C426.670000,195.726000,425.893000,196.215000,425.486000,196.939000L425.479000,196.935000C425.331000,197.218000,425.160000,197.495000,424.965000,197.761000C422.839000,200.675000,418.747000,201.316000,415.832000,199.189000C412.918000,197.063000,412.278000,192.971000,414.404000,190.056000C415.191000,188.977000,416.261000,188.245000,417.415000,187.779000C420.174000,186.666000,422.434000,185.971000,422.447000,183.868000C422.451000,183.298000,422.454000,182.793000,422.456000,182.348000L436.456000,157.795000L429.447000,157.774000L429.455000,154.865000C451.047000,157.635000,471.719000,163.339000,491.054000,171.561000L490.382000,400.435000L517.428000,400.435000L517.984000,185.127000C523.105000,188.150000,528.111000,191.353000,533.001000,194.736000L533.145000,194.836000L533.145000,163.906000ZM416.083000,153.535000L416.071000,157.736000L424.160000,157.759000L424.170000,154.247000C421.488000,153.965000,418.792000,153.727000,416.083000,153.535000ZM491.136000,143.433000L491.312000,83.462000L422.103000,105.478000L488.039000,105.705000L487.980000,124.147000L429.544000,124.047000L429.532000,128.412000C450.978000,130.908000,471.625000,136.026000,491.136000,143.433000ZM416.159000,127.205000C418.869000,127.379000,421.568000,127.595000,424.246000,127.852000L424.257000,124.038000L416.168000,124.024000L416.159000,127.205000ZM518.244000,84.605000L518.189000,105.742000L548.101000,105.861000L518.244000,84.605000Z" clip-rule="evenodd" fill="rgb(0,0,0)" fill-rule="evenodd" stroke="none" stroke-width="1" stroke-linecap="round" stroke-linejoin="round" stroke-miterlimit="1.500000"/></clipPath></defs><g id="eat3rvuy9qb32" transform="matrix(2.68092000000000 0.00772600000000 -0.00772600000000 2.68092000000000 -1371.49000000000001 -638.89599999999996)" clip-rule="evenodd"><path id="eat3rvuy9qb33" d="M588.858000,443.935000C573.973000,426.932000,564.947000,404.669000,564.947000,380.315000C564.947000,326.966000,608.261000,283.652000,661.610000,283.652000C714.960000,283.652000,758.273000,326.966000,758.273000,380.315000C758.273000,404.680000,749.239000,426.952000,734.338000,443.963000C730.651000,443.180000,726.952000,442.456000,723.242000,441.791000C739.082000,426.061000,748.886000,404.319000,748.886000,380.315000C748.886000,332.376000,709.779000,293.455000,661.610000,293.455000C613.442000,293.455000,574.335000,332.376000,574.335000,380.315000C574.335000,404.309000,584.131000,426.044000,599.955000,441.768000C596.244000,442.431000,592.545000,443.153000,588.858000,443.935000Z" clip-rule="evenodd" fill="rgb(4,154,214)" fill-rule="evenodd" stroke="rgb(255,255,255)" stroke-width="0.370000" stroke-linecap="round" stroke-linejoin="round" stroke-miterlimit="1.500000"/><g id="eat3rvuy9qb34" transform="matrix(0.37300300000000 -0.00107500000000 0.00107500000000 0.37300300000000 489.03100000000001 237.13200000000001)" clip-rule="evenodd"><path id="eat3rvuy9qb35" d="M486.568000,216.611000L550.060000,263.216000L549.289000,546.080000L485.575000,545.842000L486.568000,216.611000ZM482.087000,219.040000L453.625000,252.470000L452.890000,546.013000L481.244000,546.161000L482.087000,219.040000Z" clip-rule="evenodd" fill="none" fill-rule="evenodd" stroke="none" stroke-width="1" stroke-linecap="round" stroke-linejoin="round" stroke-miterlimit="1.500000"/><g id="eat3rvuy9qb36" clip-path="url(#eat3rvuy9qb2)" clip-rule="evenodd"><g id="eat3rvuy9qb37" transform="matrix(2.68092000000000 0.00772600000000 -0.00772600000000 2.68092000000000 -1309.22316162938432 -315.16040680913579)" clip-rule="evenodd"><g id="eat3rvuy9qb38" transform="matrix(1.24343000000000 0 0 1.00674000000000 -160.55900000000000 -2.96059000000000)" clip-rule="evenodd"><path id="eat3rvuy9qb39" d="M666.610000,321.216000L659.382000,331.828000L659.382000,439.516000L666.610000,439.516000L666.610000,321.216000Z" clip-rule="evenodd" fill="none" fill-rule="evenodd" stroke="rgb(255,255,255)" stroke-width="1.150000" stroke-linecap="round" stroke-miterlimit="5"/><path id="eat3rvuy9qb40" d="M666.610000,321.216000L659.382000,331.828000L659.382000,439.516000L666.610000,439.516000L666.610000,321.216000Z" clip-rule="evenodd" fill="rgb(4,154,214)" fill-rule="evenodd" stroke="none" stroke-width="1" stroke-linecap="round" stroke-linejoin="round" stroke-miterlimit="1.500000"/></g><g id="eat3rvuy9qb41" clip-rule="evenodd"><path id="eat3rvuy9qb42" d="M671.440000,318.744000L693.787000,335.095000L693.787000,439.516000L671.440000,439.516000L671.440000,318.744000Z" clip-rule="evenodd" fill="none" fill-rule="evenodd" stroke="rgb(255,255,255)" stroke-width="1.120000" stroke-linecap="round" stroke-miterlimit="5"/><path id="eat3rvuy9qb43" d="M671.440000,318.744000L693.787000,335.095000L693.787000,439.516000L671.440000,439.516000L671.440000,318.744000Z" clip-rule="evenodd" fill="rgb(54,88,116)" fill-rule="evenodd" stroke="none" stroke-width="1" stroke-linecap="round" stroke-linejoin="round" stroke-miterlimit="1.500000"/></g><path id="eat3rvuy9qb44" d="M676.091000,360.902000L680.900000,362.984000L680.900000,366.878000L676.091000,364.710000L676.091000,360.902000ZM684.039000,360L688.848000,362.082000L688.848000,365.976000L684.039000,363.808000L684.039000,360ZM676.091000,350.618000L680.900000,352.700000L680.900000,356.594000L676.091000,354.426000L676.091000,350.618000ZM684.039000,349.716000L688.848000,351.797000L688.848000,355.692000L684.039000,353.524000L684.039000,349.716000ZM676.091000,339.749000L680.900000,341.831000L680.900000,345.725000L676.091000,343.557000L676.091000,339.749000ZM684.039000,338.847000L688.848000,340.929000L688.848000,344.823000L684.039000,342.655000L684.039000,338.847000ZM676.091000,330.678000L680.900000,332.760000L680.900000,336.655000L676.091000,334.487000L676.091000,330.678000Z" clip-rule="evenodd" fill="rgb(255,255,255)" fill-rule="evenodd" stroke="none" stroke-width="1" stroke-linecap="round" stroke-linejoin="round" stroke-miterlimit="1.500000"/></g></g></g><g id="eat3rvuy9qb45" transform="matrix(1.31082000000000 0 0 1.01316000000000 -202.33300000000000 -5.78327000000000)" clip-rule="evenodd"><path id="eat3rvuy9qb46" d="M642.143000,337.278000L655.355000,342.056000L655.355000,439.516000L642.143000,439.516000L642.143000,337.278000Z" clip-rule="evenodd" fill="none" fill-rule="evenodd" stroke="none" stroke-width="1" stroke-linecap="round" stroke-linejoin="round" stroke-miterlimit="1.500000"/><g id="eat3rvuy9qb47" clip-path="url(#eat3rvuy9qb4)" clip-rule="evenodd"><g id="eat3rvuy9qb48" transform="matrix(0.85740200000000 0 0 0.98701300000000 92.63791179610149 106.08820704604430)" clip-rule="evenodd"><path id="eat3rvuy9qb49" d="M642.143000,337.278000L655.355000,342.056000L655.355000,439.516000L642.143000,439.516000L642.143000,337.278000Z" clip-rule="evenodd" fill="none" fill-rule="evenodd" stroke="rgb(255,255,255)" stroke-width="1.750000" stroke-linecap="round" stroke-miterlimit="5"/><path id="eat3rvuy9qb50" d="M642.143000,337.278000L655.355000,342.056000L655.355000,439.516000L642.143000,439.516000L642.143000,337.278000Z" clip-rule="evenodd" fill="rgb(54,88,116)" fill-rule="evenodd" stroke="none" stroke-width="1" stroke-linecap="round" stroke-linejoin="round" stroke-miterlimit="1.500000"/></g></g></g><g id="eat3rvuy9qb51" transform="matrix(1.09430000000000 0 0 1.01897000000000 -61.79030000000000 -8.33837000000000)" clip-rule="evenodd"><path id="eat3rvuy9qb52" d="M645.691000,355.692000L666.610000,364.168000L666.610000,439.516000L645.691000,439.516000L645.691000,355.692000Z" clip-rule="evenodd" fill="none" fill-rule="evenodd" stroke="none" stroke-width="1" stroke-linecap="round" stroke-linejoin="round" stroke-miterlimit="1.500000"/><g id="eat3rvuy9qb53" clip-path="url(#eat3rvuy9qb6)" clip-rule="evenodd"><g id="eat3rvuy9qb54" transform="matrix(0.91382700000000 0 0 0.98138100000000 56.68456873622423 90.00044364430157)" clip-rule="evenodd"><path id="eat3rvuy9qb55" d="M645.691000,355.692000L666.610000,364.168000L666.610000,439.516000L645.691000,439.516000L645.691000,355.692000Z" clip-rule="evenodd" fill="none" fill-rule="evenodd" stroke="rgb(255,255,255)" stroke-width="1.870000" stroke-linecap="round" stroke-miterlimit="5"/><path id="eat3rvuy9qb56" d="M645.691000,355.692000L666.610000,364.168000L666.610000,439.516000L645.691000,439.516000L645.691000,355.692000Z" clip-rule="evenodd" fill="rgb(54,88,116)" fill-rule="evenodd" stroke="none" stroke-width="1" stroke-linecap="round" stroke-linejoin="round" stroke-miterlimit="1.500000"/></g></g></g><path id="eat3rvuy9qb57" d="M649.697000,397.788000L664.633000,393.248000L691.400000,405.099000L691.400000,439.516000L652.594000,439.516000L649.697000,397.788000Z" clip-rule="evenodd" fill="none" fill-rule="evenodd" stroke="none" stroke-width="1" stroke-linecap="round" stroke-linejoin="round" stroke-miterlimit="1.500000"/><g id="eat3rvuy9qb58" clip-path="url(#eat3rvuy9qb8)" clip-rule="evenodd"><g id="eat3rvuy9qb59" transform="matrix(1 0 0 1 0.13323861286092 46.23871887019269)" clip-rule="evenodd"><path id="eat3rvuy9qb60" d="M649.697000,397.788000L664.633000,393.248000L691.400000,405.099000L691.400000,439.516000L652.594000,439.516000L649.697000,397.788000Z" clip-rule="evenodd" fill="rgb(255,255,255)" fill-rule="evenodd" stroke="none" stroke-width="1" stroke-linecap="round" stroke-linejoin="round" stroke-miterlimit="1.500000"/><path id="eat3rvuy9qb61" d="M674.254000,429.476000L680.660000,431.561000L680.660000,438.407000L674.254000,436.486000L674.254000,429.476000ZM674.254000,418.744000L680.660000,420.830000L680.660000,427.675000L674.254000,425.754000L674.254000,418.744000ZM674.254000,408.003000L680.660000,410.088000L680.660000,416.934000L674.254000,415.013000L674.254000,408.003000Z" clip-rule="evenodd" fill="rgb(54,88,116)" fill-rule="evenodd" stroke="none" stroke-width="1" stroke-linecap="round" stroke-linejoin="round" stroke-miterlimit="1.500000"/><path id="eat3rvuy9qb62" d="M651.847000,400.818000L651.568000,439.516000L664.633000,439.516000L664.633000,400.082000L682.359000,408.003000L683.109000,406.614000L664.633000,397.788000L651.847000,400.818000Z" clip-rule="evenodd" fill="rgb(54,88,116)" fill-rule="evenodd" stroke="none" stroke-width="1" stroke-linecap="round" stroke-linejoin="round" stroke-miterlimit="1.500000"/></g></g><g id="eat3rvuy9qb63" transform="matrix(0.37300300000000 -0.00107500000000 0.00107500000000 0.37300300000000 489.03100000000001 237.13200000000001)" clip-rule="evenodd"><g id="eat3rvuy9qb64" clip-path="url(#eat3rvuy9qb10)" clip-rule="evenodd"><g id="eat3rvuy9qb65" transform="matrix(1 0 0 1 0.00204471486515 79.94267967535363)"><g id="eat3rvuy9qb66" transform="matrix(2.68092000000000 0.00772600000000 -0.00772600000000 2.68092000000000 -1309.22000000000003 -639.50900000000001)" clip-rule="evenodd"><path id="eat3rvuy9qb67" d="M610.787000,439.299000L630.688000,410.683000L647.663000,439.008000L610.787000,439.299000Z" clip-rule="evenodd" fill="rgb(255,255,255)" fill-rule="evenodd" stroke="none" stroke-width="1" stroke-linecap="round" stroke-linejoin="round" stroke-miterlimit="1.500000"/></g><g id="eat3rvuy9qb68" transform="matrix(2.68092000000000 0.00772600000000 -0.00772600000000 2.68092000000000 -1306.18000000000006 -643.26800000000003)" clip-rule="evenodd"><path id="eat3rvuy9qb69" d="M649.518000,418.307000L662.728000,440.414000L646.530000,440.414000L629.558000,412.089000L649.518000,418.307000Z" clip-rule="evenodd" fill="rgb(54,88,116)" fill-rule="evenodd" stroke="none" stroke-width="1" stroke-linecap="round" stroke-linejoin="round" stroke-miterlimit="1.500000"/></g><g id="eat3rvuy9qb70" transform="matrix(1.47899000000000 -2.13069000000000 1.53105000000000 1.06276000000000 -1187.10999999999990 1379.35999999999990)" clip-rule="evenodd"><path id="eat3rvuy9qb71" d="M630.553000,413.399000L597.325000,413.399000L597.325000,410.522000L631.494000,410.522000L630.553000,413.399000Z" clip-rule="evenodd" fill="rgb(4,154,214)" fill-rule="evenodd" stroke="none" stroke-width="1" stroke-linecap="round" stroke-linejoin="round" stroke-miterlimit="1.500000"/></g><g id="eat3rvuy9qb72" transform="matrix(2.68092000000000 0.00772600000000 -0.00772600000000 2.68092000000000 -1309.22000000000003 -639.50900000000001)" clip-rule="evenodd"><path id="eat3rvuy9qb73" d="M629.839000,432.324000L627.084000,432.324000L627.084000,435.623000L629.839000,435.623000L629.839000,432.324000ZM634.248000,432.324000L631.494000,432.324000L631.494000,435.623000L634.248000,435.623000L634.248000,432.324000ZM629.839000,428.049000L627.084000,428.049000L627.084000,431.349000L629.839000,431.349000L629.839000,428.049000ZM634.248000,428.049000L631.494000,428.049000L631.494000,431.349000L634.248000,431.349000L634.248000,428.049000Z" clip-rule="evenodd" fill="rgb(4,154,214)" fill-rule="evenodd" stroke="none" stroke-width="1" stroke-linecap="round" stroke-linejoin="round" stroke-miterlimit="1.500000"/></g></g></g></g><g id="eat3rvuy9qb74" clip-rule="evenodd"><g id="eat3rvuy9qb75" transform="matrix(0.18650200000000 -0.00053700000000 0.00053700000000 0.18650200000000 655.19608420972543 365.91676204190969)" clip-rule="evenodd"><path id="eat3rvuy9qb76" d="M353.864000,415.593000C401.053000,442.651000,402.535000,523.811000,400,589.625000L307.727000,589.625000C305.537000,525.051000,309.374000,447.886000,353.864000,415.593000Z" clip-rule="evenodd" fill="none" fill-rule="evenodd" stroke="none" stroke-width="1" stroke-linecap="round" stroke-linejoin="round" stroke-miterlimit="1.500000"/><g id="eat3rvuy9qb77" clip-path="url(#eat3rvuy9qb12)" clip-rule="evenodd"><g id="eat3rvuy9qb78" transform="matrix(2 0 0 2 -768.07334194671353 -701.61110337939965)" clip-rule="evenodd"><path id="eat3rvuy9qb79" d="M559.525000,527.532000C556.613000,524.497000,549.633000,515.732000,549.451000,501.311000C549.217000,482.713000,561.751000,470.889000,561.751000,470.889000C561.751000,470.889000,572.929000,486.294000,572.616000,501.163000C572.371000,512.778000,565.288000,523.072000,562.199000,527.022000L562.118000,554.957000L559.446000,554.949000L559.525000,527.532000Z" clip-rule="evenodd" fill="rgb(0,138,78)" fill-rule="evenodd" stroke="none" stroke-width="1" stroke-linecap="round" stroke-linejoin="round" stroke-miterlimit="1.500000"/></g></g></g><g id="eat3rvuy9qb80" transform="matrix(0.37300300000000 -0.00107500000000 0.00107500000000 0.37300300000000 582.16065094332646 286.54184519560869)" clip-rule="evenodd"><path id="eat3rvuy9qb81" d="M353.864000,415.593000C401.053000,442.651000,402.535000,523.811000,400,589.625000L307.727000,589.625000C305.537000,525.051000,309.374000,447.886000,353.864000,415.593000Z" clip-rule="evenodd" fill="none" fill-rule="evenodd" stroke="none" stroke-width="1" stroke-linecap="round" stroke-linejoin="round" stroke-miterlimit="1.500000"/><g id="eat3rvuy9qb82" clip-path="url(#eat3rvuy9qb14)" clip-rule="evenodd"><g id="eat3rvuy9qb83" transform="matrix(1 0 0 1 -187.27881924093657 -133.90637433232635)" clip-rule="evenodd"><path id="eat3rvuy9qb84" d="M538.939000,499.373000C534.431000,494.675000,523.627000,481.109000,523.346000,458.787000C522.984000,430,542.384000,411.700000,542.384000,411.700000C542.384000,411.700000,559.685000,435.544000,559.201000,458.559000C558.822000,476.536000,547.859000,492.469000,543.077000,498.584000L542.925000,551.421000L538.789000,551.409000L538.939000,499.373000Z" clip-rule="evenodd" fill="rgb(0,138,78)" fill-rule="evenodd" stroke="none" stroke-width="1" stroke-linecap="round" stroke-linejoin="round" stroke-miterlimit="1.500000"/></g></g></g><g id="eat3rvuy9qb85" transform="matrix(0.37300300000000 -0.00107500000000 0.00107500000000 0.37300300000000 482.14855547450742 286.83005885531969)" clip-rule="evenodd"><path id="eat3rvuy9qb86" d="M353.864000,415.593000C401.053000,442.651000,402.535000,523.811000,400,589.625000L307.727000,589.625000C305.537000,525.051000,309.374000,447.886000,353.864000,415.593000Z" clip-rule="evenodd" fill="none" fill-rule="evenodd" stroke="none" stroke-width="1" stroke-linecap="round" stroke-linejoin="round" stroke-miterlimit="1.500000"/><g id="eat3rvuy9qb87" clip-path="url(#eat3rvuy9qb16)" clip-rule="evenodd"><g id="eat3rvuy9qb88" transform="matrix(1 0 0 1 81.11078943708793 -136.25964814010334)" clip-rule="evenodd"><path id="eat3rvuy9qb89" d="M269.533000,515.197000C264.533000,509.969000,254.221000,496.626000,253.939000,475.266000C253.558000,446.480000,273.752000,428.181000,273.752000,428.181000C273.752000,428.181000,291.766000,452.027000,291.264000,475.042000C290.849000,494.092000,278.061000,510.845000,273.667000,516.052000L273.571000,549.390000L269.435000,549.378000L269.533000,515.197000Z" clip-rule="evenodd" fill="rgb(0,138,78)" fill-rule="evenodd" stroke="none" stroke-width="1" stroke-linecap="round" stroke-linejoin="round" stroke-miterlimit="1.500000"/></g></g></g><g id="eat3rvuy9qb90" transform="matrix(0.12731800000000 -0.00036700000000 0.00036700000000 0.12731800000000 560.53395453949486 389.93268936343719)" clip-rule="evenodd"><path id="eat3rvuy9qb91" d="M353.864000,415.593000C401.053000,442.651000,402.535000,523.811000,400,589.625000L307.727000,589.625000C305.537000,525.051000,309.374000,447.886000,353.864000,415.593000Z" clip-rule="evenodd" fill="none" fill-rule="evenodd" stroke="none" stroke-width="1" stroke-linecap="round" stroke-linejoin="round" stroke-miterlimit="1.500000"/><g id="eat3rvuy9qb92" clip-path="url(#eat3rvuy9qb18)" clip-rule="evenodd"><g id="eat3rvuy9qb93" transform="matrix(2.92969000000000 0 0 2.92969000000000 -375.71615362104188 -1211.52159132264842)" clip-rule="evenodd"><path id="eat3rvuy9qb94" d="M247.448000,541.761000C245.163000,539.379000,239.686000,532.501000,239.543000,521.184000C239.360000,506.589000,249.195000,497.311000,249.195000,497.311000C249.195000,497.311000,257.967000,509.400000,257.721000,521.068000C257.529000,530.183000,251.971000,538.261000,249.547000,541.361000L249.516000,552.110000L247.419000,552.104000L247.448000,541.761000Z" clip-rule="evenodd" fill="rgb(0,138,78)" fill-rule="evenodd" stroke="none" stroke-width="1" stroke-linecap="round" stroke-linejoin="round" stroke-miterlimit="1.500000"/></g></g></g></g><g id="eat3rvuy9qb95" clip-rule="evenodd"><g id="eat3rvuy9qb96" transform="matrix(0.37300300000000 -0.00107500000000 0.00108100000000 0.37513700000000 489.02999999999997 236.69000000000000)" clip-rule="evenodd"><rect id="eat3rvuy9qb97" width="49.898000" height="93.407000" rx="0" ry="0" transform="matrix(1 0 0 1 455.93299999999999 123.14800000000000)" clip-rule="evenodd" fill="none" fill-rule="evenodd" stroke="none" stroke-width="1" stroke-linecap="round" stroke-linejoin="round" stroke-miterlimit="1.500000"/><g id="eat3rvuy9qb98" clip-path="url(#eat3rvuy9qb20)" clip-rule="evenodd"><g id="eat3rvuy9qb99" transform="matrix(2.68092000000000 0.00768200000000 -0.10072555923401 2.66540351587737 -1283.00991201983834 -742.99787497828356)" clip-rule="evenodd"><path id="eat3rvuy9qb100" d="M667.622000,295.225000L670.639000,295.225000L670.639000,281.848000L672.611000,281.848000L672.611000,295.225000L675.225000,295.225000L670.030000,304.399000C670.030000,304.565000,670.029000,304.753000,670.028000,304.965000C670.025000,305.750000,669.183000,306.012000,668.155000,306.430000C667.726000,306.605000,667.327000,306.879000,667.035000,307.282000C666.245000,308.372000,666.488000,309.898000,667.577000,310.688000C668.667000,311.477000,670.193000,311.234000,670.982000,310.145000C671.055000,310.045000,671.118000,309.942000,671.173000,309.836000L671.176000,309.838000C671.327000,309.567000,671.616000,309.384000,671.948000,309.384000C672.436000,309.384000,672.832000,309.780000,672.832000,310.268000C672.832000,310.443000,672.781000,310.606000,672.692000,310.744000C672.610000,310.894000,672.517000,311.040000,672.414000,311.183000C671.051000,313.062000,668.419000,313.481000,666.540000,312.119000C664.660000,310.756000,664.241000,308.124000,665.603000,306.245000C666.266000,305.330000,667.558000,305.080000,668.001000,304.562000C668.077000,304.473000,668.131000,304.344000,668.170000,304.200000L663.087000,295.225000L665.650000,295.225000L665.650000,281.848000L667.622000,281.848000L667.622000,295.225000Z" clip-rule="evenodd" fill="none" fill-rule="evenodd" stroke="rgb(255,255,255)" stroke-width="0.750000" stroke-linecap="round" stroke-linejoin="round" stroke-miterlimit="1.500000"/><path id="eat3rvuy9qb101" d="M667.622000,295.225000L670.639000,295.225000L670.639000,281.848000L672.611000,281.848000L672.611000,295.225000L675.225000,295.225000L670.030000,304.399000C670.030000,304.565000,670.029000,304.753000,670.028000,304.965000C670.025000,305.750000,669.183000,306.012000,668.155000,306.430000C667.726000,306.605000,667.327000,306.879000,667.035000,307.282000C666.245000,308.372000,666.488000,309.898000,667.577000,310.688000C668.667000,311.477000,670.193000,311.234000,670.982000,310.145000C671.055000,310.045000,671.118000,309.942000,671.173000,309.836000L671.176000,309.838000C671.327000,309.567000,671.616000,309.384000,671.948000,309.384000C672.436000,309.384000,672.832000,309.780000,672.832000,310.268000C672.832000,310.443000,672.781000,310.606000,672.692000,310.744000C672.610000,310.894000,672.517000,311.040000,672.414000,311.183000C671.051000,313.062000,668.419000,313.481000,666.540000,312.119000C664.660000,310.756000,664.241000,308.124000,665.603000,306.245000C666.266000,305.330000,667.558000,305.080000,668.001000,304.562000C668.077000,304.473000,668.131000,304.344000,668.170000,304.200000L663.087000,295.225000L665.650000,295.225000L665.650000,281.848000L667.622000,281.848000L667.622000,295.225000Z" clip-rule="evenodd" fill="rgb(54,88,116)" fill-rule="evenodd" stroke="none" stroke-width="1" stroke-linecap="round" stroke-linejoin="round" stroke-miterlimit="1.500000"/></g></g></g><g id="eat3rvuy9qb102" transform="matrix(0.37300300000000 -0.00107500000000 0.00107500000000 0.37300300000000 489.03100000000001 237.13200000000001)" clip-rule="evenodd"><path id="eat3rvuy9qb103" d="M471.416000,104.829000L555.301000,78.108000L556.546000,81.906000L484.371000,104.866000L550.306000,105.092000L550.248000,123.534000L454.476000,123.370000L471.416000,104.829000Z" clip-rule="evenodd" fill="none" fill-rule="evenodd" stroke="none" stroke-width="1" stroke-linecap="round" stroke-linejoin="round" stroke-miterlimit="1.500000"/><g id="eat3rvuy9qb104" clip-path="url(#eat3rvuy9qb22)" clip-rule="evenodd"><path id="eat3rvuy9qb105" d="M471.776000,105.442000L471.776000,105.442000L554.919000,78.973000L555.729000,81.517000L480.497000,105.467000L549.738000,105.667000L549.688000,122.954000L471.732000,122.729000L471.732000,122.735000L455.933000,122.684000L471.776000,105.442000L471.776000,105.442000Z" transform="matrix(1 0 0 1 96.28793143294334 0.00297332069547)" clip-rule="evenodd" fill="rgb(54,88,116)" fill-rule="evenodd" stroke="rgb(255,255,255)" stroke-width="1" stroke-linecap="round" stroke-linejoin="round" stroke-miterlimit="1.500000"/></g></g><g id="eat3rvuy9qb106" transform="matrix(0.37300300000000 -0.00107500000000 0.00107500000000 0.37300300000000 489.03100000000001 237.13200000000001)" clip-rule="evenodd"><path id="eat3rvuy9qb107" d="M610.369000,105.248000L576.972000,81.473000L579.236000,78.365000L617.740000,105.542000L617.660000,123.844000L579.191000,123.710000L579.242000,105.125000L610.369000,105.248000Z" clip-rule="evenodd" fill="none" fill-rule="evenodd" stroke="none" stroke-width="1" stroke-linecap="round" stroke-linejoin="round" stroke-miterlimit="1.500000"/><g id="eat3rvuy9qb108" clip-path="url(#eat3rvuy9qb24)" clip-rule="evenodd"><path id="eat3rvuy9qb109" d="M612.307000,105.847000L577.772000,81.345000L579.317000,79.168000L616.939000,105.860000L616.939000,105.861000L617.009000,105.861000L616.959000,123.148000L579.191000,123.039000L579.241000,105.752000L612.307000,105.847000Z" transform="matrix(1 0 0 1 -38.36102007522411 -0.00203889882590)" clip-rule="evenodd" fill="rgb(54,88,116)" fill-rule="evenodd" stroke="rgb(255,255,255)" stroke-width="1" stroke-linecap="round" stroke-linejoin="round" stroke-miterlimit="1.500000"/></g></g><g id="eat3rvuy9qb110" transform="matrix(0.38748700000000 -0.00111700000000 0.00166200000000 0.57667600000000 480.69299999999998 126.17700000000001)" clip-rule="evenodd"><path id="eat3rvuy9qb111" d="M579.521000,242.840000L553.595000,242.732000L552.272000,545.716000L578.356000,545.809000L579.521000,242.840000Z" clip-rule="evenodd" fill="none" fill-rule="evenodd" stroke="none" stroke-width="1" stroke-linecap="round" stroke-linejoin="round" stroke-miterlimit="1.500000"/><g id="eat3rvuy9qb112" clip-path="url(#eat3rvuy9qb26)" clip-rule="evenodd"><g id="eat3rvuy9qb113" transform="matrix(2.58071000000000 0.00499700000000 -0.00743700000000 1.73406000000000 -1310.68865641158777 87.55110129178431)" clip-rule="evenodd"><path id="eat3rvuy9qb114" d="M725.399000,269.738000L731.014000,266.471000L731.014000,266.012000L732.754000,266.012000L732.754000,439.753000L731.014000,439.753000L731.014000,435.739000L725.399000,439.006000L725.399000,439.753000L723.660000,439.753000L723.660000,436.626000L723.653000,436.614000L723.660000,436.610000L723.660000,430.911000L723.653000,430.900000L723.660000,430.896000L723.660000,425.180000L723.653000,425.168000L723.660000,425.164000L723.660000,419.494000L723.653000,419.482000L723.660000,419.478000L723.660000,413.729000L723.653000,413.717000L723.660000,413.713000L723.660000,408.041000L723.653000,408.029000L723.660000,408.025000L723.660000,402.303000L723.653000,402.291000L723.660000,402.287000L723.660000,396.588000L723.653000,396.576000L723.660000,396.572000L723.660000,390.856000L723.653000,390.844000L723.660000,390.840000L723.660000,385.170000L723.653000,385.158000L723.660000,385.154000L723.660000,379.405000L723.653000,379.394000L723.660000,379.390000L723.660000,373.718000L723.653000,373.706000L723.660000,373.702000L723.660000,368.005000L723.653000,367.993000L723.660000,367.989000L723.660000,362.290000L723.653000,362.278000L723.660000,362.274000L723.660000,356.558000L723.653000,356.546000L723.660000,356.542000L723.660000,350.872000L723.653000,350.860000L723.660000,350.856000L723.660000,345.107000L723.653000,345.096000L723.660000,345.092000L723.660000,339.420000L723.653000,339.408000L723.660000,339.404000L723.660000,333.681000L723.653000,333.669000L723.660000,333.665000L723.660000,327.966000L723.653000,327.955000L723.660000,327.951000L723.660000,322.235000L723.653000,322.223000L723.660000,322.219000L723.660000,316.549000L723.653000,316.537000L723.660000,316.533000L723.660000,310.784000L723.653000,310.772000L723.660000,310.768000L723.660000,305.096000L723.653000,305.084000L723.660000,305.080000L723.660000,299.351000L723.653000,299.339000L723.660000,299.335000L723.660000,293.636000L723.653000,293.625000L723.660000,293.621000L723.660000,287.905000L723.653000,287.893000L723.660000,287.889000L723.660000,282.219000L723.653000,282.207000L723.660000,282.203000L723.660000,276.454000L723.653000,276.442000L723.660000,276.438000L723.660000,270.766000L723.653000,270.754000L723.660000,270.750000L723.660000,266.012000L725.399000,266.012000L725.399000,269.738000ZM725.399000,433.292000L725.399000,435.598000L731.014000,432.331000L731.014000,430.024000L725.399000,433.292000ZM725.399000,427.560000L725.399000,429.883000L731.014000,426.616000L731.014000,424.293000L725.399000,427.560000ZM725.399000,421.874000L725.399000,424.152000L731.014000,420.885000L731.014000,418.607000L725.399000,421.874000ZM725.399000,416.109000L725.399000,418.466000L731.014000,415.199000L731.014000,412.842000L725.399000,416.109000ZM725.399000,410.421000L725.399000,412.701000L731.014000,409.434000L731.014000,407.154000L725.399000,410.421000ZM725.399000,404.683000L725.399000,407.013000L731.014000,403.746000L731.014000,401.416000L725.399000,404.683000ZM725.399000,398.968000L725.399000,401.275000L731.014000,398.008000L731.014000,395.701000L725.399000,398.968000ZM725.399000,393.236000L725.399000,395.560000L731.014000,392.293000L731.014000,389.969000L725.399000,393.236000ZM725.399000,387.550000L725.399000,389.828000L731.014000,386.561000L731.014000,384.283000L725.399000,387.550000ZM725.399000,381.786000L725.399000,384.142000L731.014000,380.875000L731.014000,378.519000L725.399000,381.786000ZM725.399000,376.098000L725.399000,378.377000L731.014000,375.110000L731.014000,372.831000L725.399000,376.098000ZM725.399000,370.385000L725.399000,372.690000L731.014000,369.423000L731.014000,367.118000L725.399000,370.385000ZM725.399000,364.670000L725.399000,366.977000L731.014000,363.710000L731.014000,361.403000L725.399000,364.670000ZM725.399000,358.938000L725.399000,361.262000L731.014000,357.995000L731.014000,355.671000L725.399000,358.938000ZM725.399000,353.252000L725.399000,355.530000L731.014000,352.263000L731.014000,349.985000L725.399000,353.252000ZM725.399000,347.487000L725.399000,349.844000L731.014000,346.577000L731.014000,344.220000L725.399000,347.487000ZM725.399000,341.800000L725.399000,344.079000L731.014000,340.812000L731.014000,338.533000L725.399000,341.800000ZM725.399000,336.061000L725.399000,338.392000L731.014000,335.125000L731.014000,332.794000L725.399000,336.061000ZM725.399000,330.347000L725.399000,332.653000L731.014000,329.386000L731.014000,327.080000L725.399000,330.347000ZM725.399000,324.615000L725.399000,326.938000L731.014000,323.671000L731.014000,321.348000L725.399000,324.615000ZM725.399000,318.929000L725.399000,321.207000L731.014000,317.940000L731.014000,315.662000L725.399000,318.929000ZM725.399000,313.164000L725.399000,315.521000L731.014000,312.254000L731.014000,309.897000L725.399000,313.164000ZM725.399000,307.476000L725.399000,309.756000L731.014000,306.489000L731.014000,304.209000L725.399000,307.476000ZM725.399000,301.731000L725.399000,304.068000L731.014000,300.801000L731.014000,298.464000L725.399000,301.731000ZM725.399000,296.017000L725.399000,298.323000L731.014000,295.056000L731.014000,292.749000L725.399000,296.017000ZM725.399000,290.285000L725.399000,292.608000L731.014000,289.341000L731.014000,287.018000L725.399000,290.285000ZM725.399000,284.599000L725.399000,286.877000L731.014000,283.610000L731.014000,281.332000L725.399000,284.599000ZM725.399000,278.834000L725.399000,281.191000L731.014000,277.924000L731.014000,275.567000L725.399000,278.834000ZM725.399000,273.146000L725.399000,275.426000L731.014000,272.159000L731.014000,269.879000L725.399000,273.146000Z" clip-rule="evenodd" fill="none" fill-rule="evenodd" stroke="rgb(255,255,255)" stroke-width="0.750000" stroke-linecap="round" stroke-linejoin="round" stroke-miterlimit="1.500000"/><path id="eat3rvuy9qb115" d="M725.399000,269.738000L731.014000,266.471000L731.014000,266.012000L732.754000,266.012000L732.754000,439.753000L731.014000,439.753000L731.014000,435.739000L725.399000,439.006000L725.399000,439.753000L723.660000,439.753000L723.660000,436.626000L723.653000,436.614000L723.660000,436.610000L723.660000,430.911000L723.653000,430.900000L723.660000,430.896000L723.660000,425.180000L723.653000,425.168000L723.660000,425.164000L723.660000,419.494000L723.653000,419.482000L723.660000,419.478000L723.660000,413.729000L723.653000,413.717000L723.660000,413.713000L723.660000,408.041000L723.653000,408.029000L723.660000,408.025000L723.660000,402.303000L723.653000,402.291000L723.660000,402.287000L723.660000,396.588000L723.653000,396.576000L723.660000,396.572000L723.660000,390.856000L723.653000,390.844000L723.660000,390.840000L723.660000,385.170000L723.653000,385.158000L723.660000,385.154000L723.660000,379.405000L723.653000,379.394000L723.660000,379.390000L723.660000,373.718000L723.653000,373.706000L723.660000,373.702000L723.660000,368.005000L723.653000,367.993000L723.660000,367.989000L723.660000,362.290000L723.653000,362.278000L723.660000,362.274000L723.660000,356.558000L723.653000,356.546000L723.660000,356.542000L723.660000,350.872000L723.653000,350.860000L723.660000,350.856000L723.660000,345.107000L723.653000,345.096000L723.660000,345.092000L723.660000,339.420000L723.653000,339.408000L723.660000,339.404000L723.660000,333.681000L723.653000,333.669000L723.660000,333.665000L723.660000,327.966000L723.653000,327.955000L723.660000,327.951000L723.660000,322.235000L723.653000,322.223000L723.660000,322.219000L723.660000,316.549000L723.653000,316.537000L723.660000,316.533000L723.660000,310.784000L723.653000,310.772000L723.660000,310.768000L723.660000,305.096000L723.653000,305.084000L723.660000,305.080000L723.660000,299.351000L723.653000,299.339000L723.660000,299.335000L723.660000,293.636000L723.653000,293.625000L723.660000,293.621000L723.660000,287.905000L723.653000,287.893000L723.660000,287.889000L723.660000,282.219000L723.653000,282.207000L723.660000,282.203000L723.660000,276.454000L723.653000,276.442000L723.660000,276.438000L723.660000,270.766000L723.653000,270.754000L723.660000,270.750000L723.660000,266.012000L725.399000,266.012000L725.399000,269.738000ZM725.399000,433.292000L725.399000,435.598000L731.014000,432.331000L731.014000,430.024000L725.399000,433.292000ZM725.399000,427.560000L725.399000,429.883000L731.014000,426.616000L731.014000,424.293000L725.399000,427.560000ZM725.399000,421.874000L725.399000,424.152000L731.014000,420.885000L731.014000,418.607000L725.399000,421.874000ZM725.399000,416.109000L725.399000,418.466000L731.014000,415.199000L731.014000,412.842000L725.399000,416.109000ZM725.399000,410.421000L725.399000,412.701000L731.014000,409.434000L731.014000,407.154000L725.399000,410.421000ZM725.399000,404.683000L725.399000,407.013000L731.014000,403.746000L731.014000,401.416000L725.399000,404.683000ZM725.399000,398.968000L725.399000,401.275000L731.014000,398.008000L731.014000,395.701000L725.399000,398.968000ZM725.399000,393.236000L725.399000,395.560000L731.014000,392.293000L731.014000,389.969000L725.399000,393.236000ZM725.399000,387.550000L725.399000,389.828000L731.014000,386.561000L731.014000,384.283000L725.399000,387.550000ZM725.399000,381.786000L725.399000,384.142000L731.014000,380.875000L731.014000,378.519000L725.399000,381.786000ZM725.399000,376.098000L725.399000,378.377000L731.014000,375.110000L731.014000,372.831000L725.399000,376.098000ZM725.399000,370.385000L725.399000,372.690000L731.014000,369.423000L731.014000,367.118000L725.399000,370.385000ZM725.399000,364.670000L725.399000,366.977000L731.014000,363.710000L731.014000,361.403000L725.399000,364.670000ZM725.399000,358.938000L725.399000,361.262000L731.014000,357.995000L731.014000,355.671000L725.399000,358.938000ZM725.399000,353.252000L725.399000,355.530000L731.014000,352.263000L731.014000,349.985000L725.399000,353.252000ZM725.399000,347.487000L725.399000,349.844000L731.014000,346.577000L731.014000,344.220000L725.399000,347.487000ZM725.399000,341.800000L725.399000,344.079000L731.014000,340.812000L731.014000,338.533000L725.399000,341.800000ZM725.399000,336.061000L725.399000,338.392000L731.014000,335.125000L731.014000,332.794000L725.399000,336.061000ZM725.399000,330.347000L725.399000,332.653000L731.014000,329.386000L731.014000,327.080000L725.399000,330.347000ZM725.399000,324.615000L725.399000,326.938000L731.014000,323.671000L731.014000,321.348000L725.399000,324.615000ZM725.399000,318.929000L725.399000,321.207000L731.014000,317.940000L731.014000,315.662000L725.399000,318.929000ZM725.399000,313.164000L725.399000,315.521000L731.014000,312.254000L731.014000,309.897000L725.399000,313.164000ZM725.399000,307.476000L725.399000,309.756000L731.014000,306.489000L731.014000,304.209000L725.399000,307.476000ZM725.399000,301.731000L725.399000,304.068000L731.014000,300.801000L731.014000,298.464000L725.399000,301.731000ZM725.399000,296.017000L725.399000,298.323000L731.014000,295.056000L731.014000,292.749000L725.399000,296.017000ZM725.399000,290.285000L725.399000,292.608000L731.014000,289.341000L731.014000,287.018000L725.399000,290.285000ZM725.399000,284.599000L725.399000,286.877000L731.014000,283.610000L731.014000,281.332000L725.399000,284.599000ZM725.399000,278.834000L725.399000,281.191000L731.014000,277.924000L731.014000,275.567000L725.399000,278.834000ZM725.399000,273.146000L725.399000,275.426000L731.014000,272.159000L731.014000,269.879000L725.399000,273.146000Z" clip-rule="evenodd" fill="rgb(54,88,116)" fill-rule="evenodd" stroke="none" stroke-width="1" stroke-linecap="round" stroke-linejoin="round" stroke-miterlimit="1.500000"/></g></g></g></g><g id="eat3rvuy9qb116" transform="matrix(2.26991000000000 0 0 3.66379000000000 -830.15400000000000 -1264.32999999999993)" clip-rule="evenodd"><path id="eat3rvuy9qb117" d="M615.407000,467.735000C628.966000,465.388000,642.920000,464.173000,657.156000,464.173000C671.392000,464.173000,685.347000,465.388000,698.906000,467.735000C685.231000,466.300000,671.295000,465.566000,657.156000,465.566000C643.018000,465.566000,629.081000,466.300000,615.407000,467.735000Z" clip-rule="evenodd" fill="none" fill-rule="evenodd" stroke="none" stroke-width="1" stroke-linecap="round" stroke-linejoin="round" stroke-miterlimit="1.500000"/><g id="eat3rvuy9qb118" clip-path="url(#eat3rvuy9qb28)" clip-rule="evenodd"><path id="eat3rvuy9qb119" d="M615.407000,467.735000C628.966000,465.388000,642.920000,464.173000,657.156000,464.173000C671.392000,464.173000,685.347000,465.388000,698.906000,467.735000C685.231000,466.300000,671.295000,465.566000,657.156000,465.566000C643.018000,465.566000,629.081000,466.300000,615.407000,467.735000Z" clip-rule="evenodd" fill="rgb(0,66,98)" fill-rule="evenodd" stroke="rgb(255,255,255)" stroke-width="0.120000" stroke-linecap="round" stroke-linejoin="round" stroke-miterlimit="1.500000"/></g><path id="eat3rvuy9qb120" d="M615.407000,467.735000C628.966000,465.388000,642.920000,464.173000,657.156000,464.173000C671.392000,464.173000,685.347000,465.388000,698.906000,467.735000C685.231000,466.300000,671.295000,465.566000,657.156000,465.566000C643.018000,465.566000,629.081000,466.300000,615.407000,467.735000Z" clip-rule="evenodd" fill="none" fill-rule="evenodd" stroke="rgb(255,255,255)" stroke-width="0.120000" stroke-linecap="round" stroke-linejoin="round" stroke-miterlimit="1.500000"/></g><g id="eat3rvuy9qb121" transform="matrix(0.37300300000000 -0.00107500000000 0.00107500000000 0.37300300000000 512.25599999999997 236.83600000000001)" clip-rule="evenodd"><path id="eat3rvuy9qb122" d="M-1.222000,650L-1.222000,0L800,0L800,650L-1.222000,650ZM487.420000,400.435000L487.793000,263.829000L424.301000,217.223000L391.357000,253.083000L391.166000,329.395000L386.346000,327.560000L386.483000,279.764000L340.089000,266.653000L339.703000,400.435000L487.420000,400.435000ZM533.145000,163.906000C528.225000,160.930000,523.193000,158.110000,518.061000,155.457000L518.141000,124.327000L555.392000,124.456000L555.473000,106.154000L518.256000,79.887000L518.260000,78.528000L491.327000,78.361000L491.325000,79.265000L409.148000,105.442000L392.208000,123.983000L410.881000,124.015000L410.873000,126.918000C407.292000,126.760000,403.677000,126.675000,400.044000,126.664000C375.129000,126.592000,351.020000,130.047000,328.186000,136.558000L328.186000,163.909000C350.816000,156.721000,374.942000,152.872000,399.968000,152.944000C403.597000,152.955000,407.207000,153.047000,410.797000,153.221000L410.784000,157.721000L403.913000,157.701000L417.470000,181.801000C417.365000,182.188000,417.219000,182.533000,417.015000,182.770000C415.824000,184.155000,412.359000,184.817000,410.575000,187.263000C406.907000,192.291000,408.011000,199.351000,413.039000,203.018000C418.067000,206.686000,425.127000,205.582000,428.794000,200.554000C429.072000,200.174000,429.322000,199.782000,429.545000,199.380000C429.783000,199.012000,429.921000,198.575000,429.923000,198.105000C429.926000,196.797000,428.868000,195.732000,427.560000,195.728000C426.670000,195.726000,425.893000,196.215000,425.486000,196.939000L425.479000,196.935000C425.331000,197.218000,425.160000,197.495000,424.965000,197.761000C422.839000,200.675000,418.747000,201.316000,415.832000,199.189000C412.918000,197.063000,412.278000,192.971000,414.404000,190.056000C415.191000,188.977000,416.261000,188.245000,417.415000,187.779000C420.174000,186.666000,422.434000,185.971000,422.447000,183.868000C422.451000,183.298000,422.454000,182.793000,422.456000,182.348000L436.456000,157.795000L429.447000,157.774000L429.455000,154.865000C451.047000,157.635000,471.719000,163.339000,491.054000,171.561000L490.382000,400.435000L517.428000,400.435000L517.984000,185.127000C523.105000,188.150000,528.111000,191.353000,533.001000,194.736000L533.145000,194.836000L533.145000,163.906000ZM416.083000,153.535000L416.071000,157.736000L424.160000,157.759000L424.170000,154.247000C421.488000,153.965000,418.792000,153.727000,416.083000,153.535000ZM491.136000,143.433000L491.312000,83.462000L422.103000,105.478000L488.039000,105.705000L487.980000,124.147000L429.544000,124.047000L429.532000,128.412000C450.978000,130.908000,471.625000,136.026000,491.136000,143.433000ZM416.159000,127.205000C418.869000,127.379000,421.568000,127.595000,424.246000,127.852000L424.257000,124.038000L416.168000,124.024000L416.159000,127.205000ZM518.244000,84.605000L518.189000,105.742000L548.101000,105.861000L518.244000,84.605000Z" clip-rule="evenodd" fill="none" fill-rule="evenodd" stroke="none" stroke-width="1" stroke-linecap="round" stroke-linejoin="round" stroke-miterlimit="1.500000"/><g id="eat3rvuy9qb123" clip-path="url(#eat3rvuy9qb30)" clip-rule="evenodd"><g id="eat3rvuy9qb124" transform="matrix(0.41451878627752 0.27959645173537 -0.27959645173537 0.41451878627752 234.42827785357281 224.44963753770122)" opacity="0" clip-rule="evenodd"><g id="eat3rvuy9qb125" transform="matrix(0.37300300000000 -0.00107500000000 0.00107500000000 0.37300300000000 489.03100000000001 237.13200000000001)" clip-rule="evenodd"><path id="eat3rvuy9qb126" d="M228.587000,391.681000C228.992000,394.215000,228.774000,396.985000,227.843000,399.886000C224.007000,411.834000,209.513000,421.501000,195.495000,421.461000C191.656000,421.450000,188.248000,420.711000,185.402000,419.400000C187.136000,419.716000,188.979000,419.885000,190.919000,419.890000C206.871000,419.936000,223.366000,408.938000,227.729000,395.346000C228.129000,394.101000,228.413000,392.877000,228.587000,391.681000ZM169.220000,417.806000C167.382000,414.251000,167.024000,409.904000,168.529000,405.216000C172.365000,393.268000,186.859000,383.601000,200.876000,383.642000C201.850000,383.644000,202.797000,383.694000,203.713000,383.788000C188.783000,385.056000,174.101000,395.495000,170.021000,408.203000C168.928000,411.606000,168.699000,414.852000,169.220000,417.806000ZM191.811000,391.575000C188.351000,394.128000,185.707000,397.260000,184.444000,400.647000C181.959000,407.316000,185.554000,413.030000,192.759000,415.286000C184.158000,414.254000,179.393000,408.542000,181.951000,401.680000C183.444000,397.674000,187.136000,394.074000,191.811000,391.575000ZM81.724000,374.305000C76.843000,393.791000,92.553000,409.339000,117.828000,409.412000C131.009000,409.450000,144.293000,405.272000,155.068000,398.505000C143.936000,407.861000,128.693000,413.939000,113.702000,413.896000C89.008000,413.825000,74.288000,397.173000,80.850000,376.734000C81.111000,375.918000,81.403000,375.109000,81.724000,374.305000ZM156.390000,374.703000C159.132000,377.667000,159.975000,381.623000,158.287000,385.958000C154.732000,395.095000,141.278000,402.483000,128.262000,402.445000C123.262000,402.431000,119.049000,401.323000,115.958000,399.444000C118.807000,400.478000,122.218000,401.063000,126.053000,401.074000C139.843000,401.113000,153.925000,393.728000,157.481000,384.591000C158.920000,380.892000,158.416000,377.470000,156.390000,374.703000ZM116.796000,381.643000C118.460000,386.216000,123.788000,389.856000,131.398000,390.905000C136.474000,391.604000,141.727000,391.034000,146.342000,389.521000C141.379000,392.497000,135.046000,393.997000,129.146000,393.185000C121.388000,392.116000,116.663000,387.363000,116.796000,381.643000ZM102.152000,393.366000C97.533000,386.604000,96.246000,377.834000,99.318000,368.266000C106.147000,346.994000,131.952000,329.783000,156.909000,329.855000C166.759000,329.883000,175.014000,332.600000,180.978000,337.186000C175.398000,334.615000,168.649000,333.159000,161.026000,333.137000C134.585000,333.061000,107.574000,350.269000,100.745000,371.540000C98.148000,379.630000,98.841000,387.150000,102.152000,393.366000ZM129.823000,374.587000C129.254000,371.542000,129.923000,368.004000,131.989000,364.553000C136.527000,356.974000,146.098000,352.667000,153.349000,354.942000C153.816000,355.089000,154.262000,355.259000,154.687000,355.451000C146.687000,353.842000,136.959000,358.385000,132.310000,366.149000C130.610000,368.989000,129.809000,371.893000,129.823000,374.587000ZM316.868000,330.316000C318.125000,333.581000,318.225000,337.399000,316.916000,341.476000C313.081000,353.423000,298.586000,363.091000,284.569000,363.050000C283.671000,363.048000,282.796000,363.005000,281.945000,362.925000C296.957000,361.749000,311.775000,351.266000,315.876000,338.490000C316.795000,335.628000,317.103000,332.877000,316.868000,330.316000ZM140.416000,347.369000C145.416000,343.568000,151.346000,341.257000,157.182000,341.274000C168.162000,341.306000,175.151000,349.567000,174.257000,360.443000C173.378000,351.045000,165.529000,344.226000,154.181000,344.194000C149.468000,344.180000,144.744000,345.338000,140.416000,347.369000ZM98.238000,359.372000C98.253000,355.345000,99.242000,351.137000,101.310000,346.900000C110.724000,327.608000,138.969000,314.981000,164.345000,318.718000C181.676000,321.271000,193.215000,330.803000,195.789000,342.735000C191.497000,332.782000,180.464000,325.099000,164.916000,322.809000C139.032000,318.996000,110.374000,331.563000,100.960000,350.855000C99.561000,353.722000,98.665000,356.577000,98.238000,359.372000ZM277.008000,354.874000C274.208000,352.309000,273.138000,348.444000,274.524000,344.128000C276.990000,336.445000,286.312000,330.228000,295.326000,330.254000C296.155000,330.256000,296.952000,330.311000,297.714000,330.415000C288.337000,331.469000,279.257000,338.064000,276.692000,346.053000C275.646000,349.313000,275.831000,352.348000,277.008000,354.874000ZM285.853000,326.559000C289.846000,323.464000,295.024000,321.495000,300.104000,321.510000C308.280000,321.533000,313.414000,326.685000,312.458000,333.375000C311.651000,327.464000,306.253000,323.257000,298.372000,323.234000C294.059000,323.222000,289.685000,324.464000,285.853000,326.559000ZM276.174000,328.892000C281.549000,318.773000,294.411000,311.109000,306.895000,311.145000C314.626000,311.167000,320.607000,314.138000,323.773000,318.800000C319.926000,315.605000,314.442000,313.695000,307.836000,313.676000C295.760000,313.641000,283.373000,319.935000,276.174000,328.892000ZM233.202000,309.500000C225.047000,300.578000,222.268000,287.594000,226.900000,273.167000C235.495000,246.393000,266.383000,224.724000,295.831000,224.809000C296.617000,224.811000,297.395000,224.829000,298.159000,224.862000C269.396000,225.927000,239.518000,248.277000,230.707000,275.721000C226.556000,288.651000,227.798000,300.480000,233.202000,309.500000ZM269.151000,260.113000C262.979000,264.612000,258.082000,270.782000,255.896000,277.593000C252.306000,288.775000,257.118000,298.277000,266.913000,301.513000C254.767000,300.320000,248.075000,290.669000,251.826000,278.985000C254.365000,271.078000,261.079000,264.128000,269.151000,260.113000ZM318.303000,263.001000C318.686000,265.839000,318.402000,268.949000,317.356000,272.206000C313.092000,285.487000,297.772000,296.234000,283.166000,296.192000C278.159000,296.178000,273.881000,294.897000,270.592000,292.685000C273.375000,293.810000,276.587000,294.431000,280.146000,294.442000C295.880000,294.487000,312.491000,282.573000,317.217000,267.853000C317.749000,266.197000,318.107000,264.576000,318.303000,263.001000ZM306.759000,217.434000C307.506000,217.398000,308.253000,217.380000,308.998000,217.382000C331.311000,217.447000,344.137000,234.890000,337.620000,256.310000C333.670000,269.295000,323.513000,280.780000,311.157000,287.797000C321.111000,280.381000,329.088000,269.923000,332.615000,258.329000C339.249000,236.522000,327.722000,218.635000,306.759000,217.434000ZM265.240000,284.762000C264.169000,282.232000,264.047000,279.185000,265.098000,275.909000C267.897000,267.192000,277.952000,260.138000,287.539000,260.166000C287.989000,260.167000,288.429000,260.184000,288.860000,260.216000C278.958000,260.843000,268.872000,268.393000,265.908000,277.625000C265.093000,280.164000,264.897000,282.579000,265.240000,284.762000ZM305.134000,260.436000C306.808000,261.241000,308.062000,262.772000,308.638000,264.986000C310.170000,270.879000,306.325000,279.394000,300.057000,283.990000C299.763000,284.206000,299.469000,284.409000,299.176000,284.600000C305.397000,279.510000,309.071000,270.721000,307.448000,264.481000C307.001000,262.764000,306.198000,261.410000,305.134000,260.436000ZM242.221000,282.659000C241.779000,278.496000,242.254000,273.976000,243.771000,269.252000C250.333000,248.813000,273.911000,232.272000,296.391000,232.336000C304.776000,232.361000,311.832000,234.692000,317.042000,238.666000C312.419000,236.514000,306.949000,235.314000,300.805000,235.296000C276.589000,235.226000,251.024000,253.562000,243.751000,276.217000C243.047000,278.407000,242.541000,280.559000,242.221000,282.659000Z" clip-rule="evenodd" fill="rgb(54,88,116)" fill-rule="evenodd" stroke="none" stroke-width="1" stroke-linecap="round" stroke-linejoin="round" stroke-miterlimit="1.500000"/></g><g id="eat3rvuy9qb127" transform="matrix(1 0 0 1 -2 -2)" clip-rule="evenodd"><path id="eat3rvuy9qb128" d="M544.395000,376.554000C549.965000,374.493000,567.751000,373.073000,576.293000,367.319000C584.835000,361.565000,593.211000,347.173000,596.893000,342.436000C598.986000,339.742000,600.803000,339.903000,600.416000,341.857000C599.625000,345.850000,589.699000,360.871000,589.385000,364.971000C589.159000,367.905000,598.347000,365.223000,599.188000,365.980000C600.028000,366.736000,596.608000,368.759000,594.890000,369.557000C592.005000,370.897000,585.202000,370.678000,581.359000,373.357000C577.274000,376.206000,571.581000,385.175000,568.965000,387.320000C567.746000,388.319000,566.997000,387.751000,566.716000,386.484000C566.296000,384.587000,573.033000,380.042000,569.145000,378.805000C565.379000,377.607000,548.538000,381.755000,543.396000,380.020000C542.092000,379.580000,543.105000,377.031000,544.395000,376.554000Z" clip-rule="evenodd" fill="rgb(54,88,116)" fill-rule="evenodd" stroke="none" stroke-width="1" stroke-linecap="round" stroke-linejoin="round" stroke-miterlimit="1.500000"/></g><g id="eat3rvuy9qb129" transform="matrix(1 0 0 1 -1 -1)" clip-rule="evenodd"><path id="eat3rvuy9qb130" d="M544.054000,376.395000C549.623000,374.335000,567.751000,373.073000,576.293000,367.319000C584.835000,361.565000,592.709000,347.371000,596.391000,342.633000C598.484000,339.940000,600.803000,339.903000,600.416000,341.857000C599.625000,345.850000,589.699000,360.871000,589.385000,364.971000C589.159000,367.905000,597.020000,366.302000,598.670000,365.318000C599.642000,364.738000,596.608000,368.759000,594.890000,369.557000C592.005000,370.897000,585.202000,370.678000,581.359000,373.357000C577.274000,376.206000,571.581000,385.175000,568.965000,387.320000C567.746000,388.319000,565.971000,385.912000,566.875000,385.169000C568.198000,384.080000,573.033000,380.042000,569.145000,378.805000C565.379000,377.607000,548.538000,381.755000,543.396000,380.020000C542.092000,379.580000,542.763000,376.873000,544.054000,376.395000Z" clip-rule="evenodd" fill="rgb(255,255,255)" fill-rule="evenodd" stroke="none" stroke-width="1" stroke-linecap="round" stroke-linejoin="round" stroke-miterlimit="1.500000"/></g><g id="eat3rvuy9qb131" transform="matrix(0.37300300000000 -0.00107500000000 0.00107500000000 0.37300300000000 489.03100000000001 237.13200000000001)" clip-rule="evenodd"><path id="eat3rvuy9qb132" d="M281.590000,286.446000C283.595000,282.809000,281.678000,281.348000,280.562000,277.826000C279.696000,275.093000,286.162000,271.378000,289.252000,271.701000C292.342000,272.023000,298.664000,277.839000,297.942000,280.781000C297.929000,280.831000,297.913000,280.882000,297.891000,280.933000C297.882000,281.154000,297.853000,281.383000,297.806000,281.620000C295.654000,292.320000,268.927000,332.514000,268.052000,343.501000C267.606000,349.109000,279.307000,346.195000,286.876000,344.798000C289.485000,343.480000,283.369000,340.974000,286.896000,340.532000C290.040000,340.137000,290.521000,338.583000,292.417000,339.770000C293.407000,340.390000,294.482000,342.559000,293.300000,345.862000C292.735000,348.741000,286.637000,354.060000,282.778000,355.839000C275.033000,359.409000,256.796000,358.769000,246.473000,365.923000C235.497000,373.529000,221.408000,395.267000,214.379000,400.998000C211.551000,403.304000,204.561000,402.747000,202.835000,401.307000C201.744000,400.623000,201.425000,399.617000,201.117000,398.635000C200.614000,397.031000,201.296000,394.765000,202.212000,393.248000C203.406000,391.272000,203.065000,396.746000,206.023000,395.796000C211.715000,390.284000,221.425000,382.920000,213.685000,380.433000C204.837000,377.591000,168.984000,385.698000,151.012000,384.566000C150.846000,384.605000,150.686000,384.626000,150.531000,384.630000C134.200000,385.061000,137.397000,373.130000,139.064000,369.699000C140.838000,366.047000,145.868000,363.718000,149.516000,364.678000C151.848000,365.292000,150.304000,367.706000,150.828000,369.884000C170.487000,365.692000,212.572000,363.330000,232.937000,349.696000C253.650000,335.830000,271.102000,302.185000,281.590000,286.446000Z" clip-rule="evenodd" fill="rgb(54,88,116)" fill-rule="evenodd" stroke="none" stroke-width="1" stroke-linecap="round" stroke-linejoin="round" stroke-miterlimit="1.500000"/></g></g></g></g></g><script><![CDATA[!function(t,n){"object"==typeof exports&&"undefined"!=typeof module?module.exports=n():"function"==typeof define&&define.amd?define(n):(t=t||self).__SVGATOR_PLAYER__=n()}(this,(function(){"use strict";function t(n){return(t="function"==typeof Symbol&&"symbol"==typeof Symbol.iterator?function(t){return typeof t}:function(t){return t&&"function"==typeof Symbol&&t.constructor===Symbol&&t!==Symbol.prototype?"symbol":typeof t})(n)}function n(t,n){if(!(t instanceof n))throw new TypeError("Cannot call a class as a function")}function r(t,n){for(var r=0;r<n.length;r++){var e=n[r];e.enumerable=e.enumerable||!1,e.configurable=!0,"value"in e&&(e.writable=!0),Object.defineProperty(t,e.key,e)}}function e(t,n,e){return n&&r(t.prototype,n),e&&r(t,e),t}var i=1e-5,u=Math.abs;function o(t){return t}function a(t,n,r){var e=1-r;return 3*r*e*(t*e+n*r)+r*r*r}function l(){var t=arguments.length>0&&void 0!==arguments[0]?arguments[0]:0,n=arguments.length>1&&void 0!==arguments[1]?arguments[1]:0,r=arguments.length>2&&void 0!==arguments[2]?arguments[2]:1,e=arguments.length>3&&void 0!==arguments[3]?arguments[3]:1;return t<0||t>1||r<0||r>1?null:u(t-n)<=i&&u(r-e)<=i?o:function(o){if(o<=0)return t>0?o*n/t:0===n&&r>0?o*e/r:0;if(o>=1)return r<1?1+(o-1)*(e-1)/(r-1):1===r&&t<1?1+(o-1)*(n-1)/(t-1):1;for(var l,f=0,s=1;f<s;){var c=a(t,r,l=(f+s)/2);if(u(o-c)<i)break;c<o?f=l:s=l}return a(n,e,l)}}function f(){return 1}function s(t){return 1===t?1:0}function c(){var t=arguments.length>0&&void 0!==arguments[0]?arguments[0]:1,n=arguments.length>1&&void 0!==arguments[1]?arguments[1]:0;if(1===t){if(0===n)return s;if(1===n)return f}var r=1/t;return function(t){return t>=1?1:(t+=n*r)-t%r}}function v(t){var n=arguments.length>1&&void 0!==arguments[1]?arguments[1]:2;if(Number.isInteger(t))return t;var r=Math.pow(10,n);return Math.round(t*r)/r}var h=Math.PI/180;function y(t,n,r){return t>=.5?r:n}function d(t,n,r){return 0===t||n===r?n:t*(r-n)+n}function g(t,n,r){var e=d(t,n,r);return e<=0?0:e}function m(t,n,r){return 0===t?n:1===t?r:{x:d(t,n.x,r.x),y:d(t,n.y,r.y)}}function p(t,n,r){return 0===t?n:1===t?r:{x:g(t,n.x,r.x),y:g(t,n.y,r.y)}}function b(t,n,r){var e=function(t,n,r){return Math.round(d(t,n,r))}(t,n,r);return e<=0?0:e>=255?255:e}function w(t,n,r){return 0===t?n:1===t?r:{r:b(t,n.r,r.r),g:b(t,n.g,r.g),b:b(t,n.b,r.b),a:d(t,null==n.a?1:n.a,null==r.a?1:r.a)}}function A(t,n,r){if(0===t)return n;if(1===t)return r;var e=n.length;if(e!==r.length)return y(t,n,r);for(var i=[],u=0;u<e;u++)i.push(w(t,n[u],r[u]));return i}function x(t,n,r){var e=n.length;if(e!==r.length)return y(t,n,r);for(var i=new Array(e),u=0;u<e;u++)i[u]=d(t,n[u],r[u]);return i}function k(t,n){for(var r=[],e=0;e<t;e++)r.push(n);return r}function S(t,n){if(--n<=0)return t;var r=(t=Object.assign([],t)).length;do{for(var e=0;e<r;e++)t.push(t[e])}while(--n>0);return t}var _=6,M=/\.0+$/g;function I(t){return Number.isInteger(t)?t+"":t.toFixed(_).replace(M,"")}function E(t){var n=arguments.length>1&&void 0!==arguments[1]?arguments[1]:" ";return t&&t.length?t.map(I).join(n):""}function F(t){return I(t.x)+","+I(t.y)}function B(t){return t?null==t.a||t.a>=1?"rgb("+t.r+","+t.g+","+t.b+")":"rgba("+t.r+","+t.g+","+t.b+","+t.a+")":"transparent"}var j={f:null,i:p,u:function(t,n){return function(r){var e=n(r);t.setAttribute("rx",I(e.x)),t.setAttribute("ry",I(e.y))}}},q={f:null,i:function(t,n,r){return 0===t?n:1===t?r:{width:g(t,n.width,r.width),height:g(t,n.height,r.height)}},u:function(t,n){return function(r){var e=n(r);t.setAttribute("width",I(e.width)),t.setAttribute("height",I(e.height))}}},P=Math.sin,O=Math.cos,z=Math.acos,L=Math.asin,C=Math.tan,R=Math.atan2,T=Math.PI/180,V=180/Math.PI,D=Math.sqrt,N=function(){function t(){var r=arguments.length>0&&void 0!==arguments[0]?arguments[0]:1,e=arguments.length>1&&void 0!==arguments[1]?arguments[1]:0,i=arguments.length>2&&void 0!==arguments[2]?arguments[2]:0,u=arguments.length>3&&void 0!==arguments[3]?arguments[3]:1,o=arguments.length>4&&void 0!==arguments[4]?arguments[4]:0,a=arguments.length>5&&void 0!==arguments[5]?arguments[5]:0;n(this,t),this.m=[r,e,i,u,o,a],this.i=null,this.w=null,this.s=null}return e(t,[{key:"point",value:function(t,n){var r=this.m;return{x:r[0]*t+r[2]*n+r[4],y:r[1]*t+r[3]*n+r[5]}}},{key:"translateSelf",value:function(){var t=arguments.length>0&&void 0!==arguments[0]?arguments[0]:0,n=arguments.length>1&&void 0!==arguments[1]?arguments[1]:0;if(!t&&!n)return this;var r=this.m;return r[4]+=r[0]*t+r[2]*n,r[5]+=r[1]*t+r[3]*n,this.w=this.s=this.i=null,this}},{key:"rotateSelf",value:function(){var t=arguments.length>0&&void 0!==arguments[0]?arguments[0]:0;if(t%=360){var n=P(t*=T),r=O(t),e=this.m,i=e[0],u=e[1];e[0]=i*r+e[2]*n,e[1]=u*r+e[3]*n,e[2]=e[2]*r-i*n,e[3]=e[3]*r-u*n,this.w=this.s=this.i=null}return this}},{key:"scaleSelf",value:function(){var t=arguments.length>0&&void 0!==arguments[0]?arguments[0]:1,n=arguments.length>1&&void 0!==arguments[1]?arguments[1]:1;if(1!==t||1!==n){var r=this.m;r[0]*=t,r[1]*=t,r[2]*=n,r[3]*=n,this.w=this.s=this.i=null}return this}},{key:"skewSelf",value:function(t,n){if(n%=360,(t%=360)||n){var r=this.m,e=r[0],i=r[1],u=r[2],o=r[3];t&&(t=C(t*T),r[2]+=e*t,r[3]+=i*t),n&&(n=C(n*T),r[0]+=u*n,r[1]+=o*n),this.w=this.s=this.i=null}return this}},{key:"resetSelf",value:function(){var t=arguments.length>0&&void 0!==arguments[0]?arguments[0]:1,n=arguments.length>1&&void 0!==arguments[1]?arguments[1]:0,r=arguments.length>2&&void 0!==arguments[2]?arguments[2]:0,e=arguments.length>3&&void 0!==arguments[3]?arguments[3]:1,i=arguments.length>4&&void 0!==arguments[4]?arguments[4]:0,u=arguments.length>5&&void 0!==arguments[5]?arguments[5]:0,o=this.m;return o[0]=t,o[1]=n,o[2]=r,o[3]=e,o[4]=i,o[5]=u,this.w=this.s=this.i=null,this}},{key:"recomposeSelf",value:function(){var t=arguments.length>0&&void 0!==arguments[0]?arguments[0]:null,n=arguments.length>1&&void 0!==arguments[1]?arguments[1]:null,r=arguments.length>2&&void 0!==arguments[2]?arguments[2]:null,e=arguments.length>3&&void 0!==arguments[3]?arguments[3]:null,i=arguments.length>4&&void 0!==arguments[4]?arguments[4]:null;return this.isIdentity||this.resetSelf(),t&&(t.x||t.y)&&this.translateSelf(t.x,t.y),n&&this.rotateSelf(n),r&&(r.x&&this.skewSelf(r.x,0),r.y&&this.skewSelf(0,r.y)),!e||1===e.x&&1===e.y||this.scaleSelf(e.x,e.y),i&&(i.x||i.y)&&this.translateSelf(i.x,i.y),this}},{key:"decompose",value:function(){var t=arguments.length>0&&void 0!==arguments[0]?arguments[0]:0,n=arguments.length>1&&void 0!==arguments[1]?arguments[1]:0,r=this.m,e=r[0]*r[0]+r[1]*r[1],i=[[r[0],r[1]],[r[2],r[3]]],u=D(e);if(0===u)return{origin:{x:r[4],y:r[5]},translate:{x:t,y:n},scale:{x:0,y:0},skew:{x:0,y:0},rotate:0};i[0][0]/=u,i[0][1]/=u;var o=r[0]*r[3]-r[1]*r[2]<0;o&&(u=-u);var a=i[0][0]*i[1][0]+i[0][1]*i[1][1];i[1][0]-=i[0][0]*a,i[1][1]-=i[0][1]*a;var l=D(i[1][0]*i[1][0]+i[1][1]*i[1][1]);if(0===l)return{origin:{x:r[4],y:r[5]},translate:{x:t,y:n},scale:{x:u,y:0},skew:{x:0,y:0},rotate:0};i[1][0]/=l,i[1][1]/=l,a/=l;var f=0;return i[1][1]<0?(f=z(i[1][1])*V,i[0][1]<0&&(f=360-f)):f=L(i[0][1])*V,o&&(f=-f),a=R(a,D(i[0][0]*i[0][0]+i[0][1]*i[0][1]))*V,{origin:{x:r[4],y:r[5]},translate:{x:t,y:n},scale:{x:u,y:l},skew:{x:a,y:0},rotate:f}}},{key:"toString",value:function(){return null===this.s&&(this.s="matrix("+this.m.map($).join(" ")+")"),this.s}},{key:"determinant",get:function(){var t=this.m;return t[0]*t[3]-t[1]*t[2]}},{key:"isIdentity",get:function(){if(null===this.i){var t=this.m;this.i=1===t[0]&&0===t[1]&&0===t[2]&&1===t[3]&&0===t[4]&&0===t[5]}return this.i}}]),t}(),G=/\.0+$/;function $(t){return Number.isInteger(t)?t:t.toFixed(14).replace(G,"")}Object.freeze({M:2,L:2,Z:0,H:1,V:1,C:6,Q:4,T:2,S:4,A:7});function H(t,n,r){return t+(n-t)*r}function Q(t,n,r){var e=arguments.length>3&&void 0!==arguments[3]&&arguments[3],i={x:H(t.x,n.x,r),y:H(t.y,n.y,r)};return e&&(i.a=function(t,n){return Math.atan2(n.y-t.y,n.x-t.x)}(t,n)),i}function U(t,n,r,e){var i=1-e;return i*i*t+2*i*e*n+e*e*r}function Y(t,n,r,e){return 2*(1-e)*(n-t)+2*e*(r-n)}function Z(t,n,r,e){var i=arguments.length>4&&void 0!==arguments[4]&&arguments[4],u={x:U(t.x,n.x,r.x,e),y:U(t.y,n.y,r.y,e)};return i&&(u.a=function(t,n,r,e){return Math.atan2(Y(t.y,n.y,r.y,e),Y(t.x,n.x,r.x,e))}(t,n,r,e)),u}function J(t,n,r,e,i){var u=i*i;return i*u*(e-t+3*(n-r))+3*u*(t+r-2*n)+3*i*(n-t)+t}function K(t,n,r,e,i){var u=1-i;return 3*(u*u*(n-t)+2*u*i*(r-n)+i*i*(e-r))}function W(t,n,r,e,i){var u=arguments.length>5&&void 0!==arguments[5]&&arguments[5],o={x:J(t.x,n.x,r.x,e.x,i),y:J(t.y,n.y,r.y,e.y,i)};return u&&(o.a=function(t,n,r,e,i){return Math.atan2(K(t.y,n.y,r.y,e.y,i),K(t.x,n.x,r.x,e.x,i))}(t,n,r,e,i)),o}function X(t,n,r){var e,i=arguments.length>3&&void 0!==arguments[3]&&arguments[3];if(nt(n)){if(null!=(e=r).start&&!nt(e))return Z(n,r.start,r,t,i)}else if(nt(r)){if(n.end)return Z(n,n.end,r,t,i)}else{if(n.end)return r.start?W(n,n.end,r.start,r,t,i):Z(n,n.end,r,t,i);if(r.start)return Z(n,r.start,r,t,i)}return Q(n,r,t,i)}function tt(t,n,r){var e=X(t,n,r,!0);return e.a=function(t){return arguments.length>1&&void 0!==arguments[1]&&arguments[1]?t+Math.PI:t}(e.a)/h,e}function nt(t){return!t.type||"corner"===t.type}var rt=new N;var et={f:function(t){return t?t.join(" "):""},i:function(n,r,e){if(0===n)return r;if(1===n)return e;var i=r.length;if(i!==e.length)return y(n,r,e);for(var u,o=new Array(i),a=0;a<i;a++){if((u=t(r[a]))!==t(e[a]))return y(n,r,e);if("number"===u)o[a]=d(n,r[a],e[a]);else{if(r[a]!==e[a])return y(n,r,e);o[a]=r[a]}}return o}},it={f:null,i:x,u:function(t,n){return function(r){var e=n(r);t.setAttribute("x1",I(e[0])),t.setAttribute("y1",I(e[1])),t.setAttribute("x2",I(e[2])),t.setAttribute("y2",I(e[3]))}}},ut={f:I,i:d},ot={f:I,i:function(t,n,r){var e=d(t,n,r);return e<=0?0:e>=1?1:e}},at={f:E,i:function(t,n,r){var e,i,u,o=n.length,a=r.length;if(o!==a)if(0===o)n=k(o=a,0);else if(0===a)a=o,r=k(o,0);else{var l=(u=(e=o)*(i=a)/function(t,n){for(var r;n;)r=n,n=t%n,t=r;return t||1}(e,i))<0?-u:u;n=S(n,Math.floor(l/o)),r=S(r,Math.floor(l/a)),o=a=l}for(var f=[],s=0;s<o;s++)f.push(v(g(t,n[s],r[s]),6));return f}};function lt(t,n,r,e,i,u,o,a){return n=function(t,n,r){for(var e,i,u,o=t.length-1,a={},l=0;l<=o;l++)(e=t[l]).e&&(e.e=n(e.e)),e.v&&"g"===(i=e.v).t&&i.r&&(u=r.getElementById(i.r))&&(a[i.r]=u.querySelectorAll("stop"));return a}(t,e,a),function(e){var i,u=r(e,t,ft);return u?"c"===u.t?B(u.v):"g"===u.t?(n[u.r]&&function(t,n){for(var r=0,e=t.length;r<e;r++)t[r].setAttribute("stop-color",B(n[r]))}(n[u.r],u.v),(i=u.r)?"url(#"+i+")":"none"):"none":"none"}}function ft(t,n,r){if(0===t)return n;if(1===t)return r;if(n&&r){var e=n.t;if(e===r.t)switch(n.t){case"c":return{t:e,v:w(t,n.v,r.v)};case"g":if(n.r===r.r)return{t:e,v:A(t,n.v,r.v),r:n.r}}}return y(t,n,r)}var st={blur:p,brightness:g,contrast:g,"drop-shadow":function(t,n,r){return 0===t?n:1===t?r:{blur:p(t,n.blur,r.blur),offset:m(t,n.offset,r.offset),color:w(t,n.color,r.color)}},grayscale:g,"hue-rotate":d,invert:g,opacity:g,saturate:g,sepia:g};function ct(t,n,r){if(0===t)return n;if(1===t)return r;var e=n.length;if(e!==r.length)return y(t,n,r);for(var i,u=[],o=0;o<e;o++){if(n[o].type!==r[o].type)return n;if(!(i=st[n[o].type]))return y(t,n,r);u.push({type:n.type,value:i(t,n[o].value,r[o].value)})}return u}var vt={blur:function(t){return t?function(n){t.setAttribute("stdDeviation",F(n))}:null},brightness:function(t,n,r){return(t=yt(r,n))?function(n){n=I(n),t.map((function(t){return t.setAttribute("slope",n)}))}:null},contrast:function(t,n,r){return(t=yt(r,n))?function(n){var r=I((1-n)/2);n=I(n),t.map((function(t){t.setAttribute("slope",n),t.setAttribute("intercept",r)}))}:null},"drop-shadow":function(t,n,r){var e=r.getElementById(n+"-blur");if(!e)return null;var i=r.getElementById(n+"-offset");if(!i)return null;var u=r.getElementById(n+"-flood");return u?function(t){e.setAttribute("stdDeviation",F(t.blur)),i.setAttribute("dx",I(t.offset.x)),i.setAttribute("dy",I(t.offset.y)),u.setAttribute("flood-color",B(t.color))}:null},grayscale:function(t){return t?function(n){t.setAttribute("values",E(function(t){return[.2126+.7874*(t=1-t),.7152-.7152*t,.0722-.0722*t,0,0,.2126-.2126*t,.7152+.2848*t,.0722-.0722*t,0,0,.2126-.2126*t,.7152-.7152*t,.0722+.9278*t,0,0,0,0,0,1,0]}(n)))}:null},"hue-rotate":function(t){return t?function(n){return t.setAttribute("values",I(n))}:null},invert:function(t,n,r){return(t=yt(r,n))?function(n){n=I(n)+" "+I(1-n),t.map((function(t){return t.setAttribute("tableValues",n)}))}:null},opacity:function(t,n,r){return(t=r.getElementById(n+"-A"))?function(n){return t.setAttribute("tableValues","0 "+I(n))}:null},saturate:function(t){return t?function(n){return t.setAttribute("values",I(n))}:null},sepia:function(t){return t?function(n){return t.setAttribute("values",E(function(t){return[.393+.607*(t=1-t),.769-.769*t,.189-.189*t,0,0,.349-.349*t,.686+.314*t,.168-.168*t,0,0,.272-.272*t,.534-.534*t,.131+.869*t,0,0,0,0,0,1,0]}(n)))}:null}};var ht=["R","G","B"];function yt(t,n){var r=ht.map((function(r){return t.getElementById(n+"-"+r)||null}));return-1!==r.indexOf(null)?null:r}var dt={fill:lt,"fill-opacity":ot,stroke:lt,"stroke-opacity":ot,"stroke-width":ut,"stroke-dashoffset":{f:I,i:d},"stroke-dasharray":at,opacity:ot,transform:function(n,r,e,i){if(!(n=function(n,r){if(!n||"object"!==t(n))return null;var e=!1;for(var i in n)n.hasOwnProperty(i)&&(n[i]&&n[i].length?(n[i].forEach((function(t){t.e&&(t.e=r(t.e))})),e=!0):delete n[i]);return e?n:null}(n,i)))return null;var u=function(t,i,u){var o=arguments.length>3&&void 0!==arguments[3]?arguments[3]:null;return n[t]?e(i,n[t],u):r&&r[t]?r[t]:o};return r&&r.a&&n.o?function(t){var r=e(t,n.o,tt);return rt.recomposeSelf(r,u("r",t,d,0)+r.a,u("k",t,m),u("s",t,m),u("t",t,m)).toString()}:function(t){return rt.recomposeSelf(u("o",t,X,null),u("r",t,d,0),u("k",t,m),u("s",t,m),u("t",t,m)).toString()}},"#filter":function(t,n,r,e,i,u,o,a){if(!n.items||!t||!t.length)return null;var l=function(t,n){var r=(t=t.map((function(t){return t&&vt[t[0]]?(n.getElementById(t[1]),vt[t[0]](n.getElementById(t[1]),t[1],n)):null}))).length;return function(n){for(var e=0;e<r;e++)t[e]&&t[e](n[e].value)}}(n.items,a);return l?(t=function(t,n){return t.map((function(t){return t.e=n(t.e),t}))}(t,e),function(n){l(r(n,t,ct))}):null},"#line":it,points:{f:E,i:x},d:et,r:ut,"#size":q,"#radius":j,_:function(t,n){if(Array.isArray(t))for(var r=0;r<t.length;r++)this[t[r]]=n;else this[t]=n}},gt=function(){function t(r){n(this,t),this.list=r,this.length=r.length}return e(t,[{key:"setAttribute",value:function(t,n){for(var r=this.list,e=0;e<this.length;e++)r[e].setAttribute(t,n)}},{key:"removeAttribute",value:function(t){for(var n=this.list,r=0;r<this.length;r++)n[r].removeAttribute(t)}},{key:"style",value:function(t,n){for(var r=this.list,e=0;e<this.length;e++)r[e].style[t]=n}}]),t}(),mt=/-./g,pt=function(t,n){return n.toUpperCase()};function bt(t){return"function"==typeof t?t:y}function wt(t){return t?"function"==typeof t?t:Array.isArray(t)?function(t){var n=arguments.length>1&&void 0!==arguments[1]?arguments[1]:o;if(!Array.isArray(t))return n;switch(t.length){case 1:return c(t[0])||n;case 2:return c(t[0],t[1])||n;case 4:return l(t[0],t[1],t[2],t[3])||n}return n}(t,null):function(t,n){var r=arguments.length>2&&void 0!==arguments[2]?arguments[2]:o;switch(t){case"linear":return o;case"steps":return c(n.steps||1,n.jump||0)||r;case"bezier":case"cubic-bezier":return l(n.x1||0,n.y1||0,n.x2||0,n.y2||0)||r}return r}(t.type,t.value,null):null}function At(t,n,r){var e=arguments.length>3&&void 0!==arguments[3]&&arguments[3],i=n.length-1;if(t<=n[0].t)return e?[0,0,n[0].v]:n[0].v;if(t>=n[i].t)return e?[i,1,n[i].v]:n[i].v;var u,o=n[0],a=null;for(u=1;u<=i;u++){if(!(t>n[u].t)){a=n[u];break}o=n[u]}return null==a?e?[i,1,n[i].v]:n[i].v:o.t===a.t?e?[u,1,a.v]:a.v:(t=(t-o.t)/(a.t-o.t),o.e&&(t=o.e(t)),e?[u,t,r(t,o.v,a.v)]:r(t,o.v,a.v))}function xt(t,n){var r=arguments.length>2&&void 0!==arguments[2]?arguments[2]:null;return t&&t.length?"function"!=typeof n?null:("function"!=typeof r&&(r=null),function(e){var i=At(e,t,n);return null!=i&&r&&(i=r(i)),i}):null}function kt(t,n){return t.t-n.t}function St(n,r,e,i,u){var o,a="@"===e[0],l="#"===e[0],f=dt[e],s=y;switch(a?(o=e.substr(1),e=o.replace(mt,pt)):l&&(e=e.substr(1)),t(f)){case"function":if(s=f(i,u,At,wt,e,a,r,n),l)return s;break;case"string":s=xt(i,bt(f));break;case"object":if((s=xt(i,bt(f.i),f.f))&&"function"==typeof f.u)return f.u(r,s,e,a,n)}return s?function(t,n,r){if(arguments.length>3&&void 0!==arguments[3]&&arguments[3])return t instanceof gt?function(e){return t.style(n,r(e))}:function(e){return t.style[n]=r(e)};if(Array.isArray(n)){var e=n.length;return function(i){var u=r(i);if(null==u)for(var o=0;o<e;o++)t[o].removeAttribute(n);else for(var a=0;a<e;a++)t[a].setAttribute(n,u)}}return function(e){var i=r(e);null==i?t.removeAttribute(n):t.setAttribute(n,i)}}(r,e,s,a):null}function _t(n,r,e,i){if(!i||"object"!==t(i))return null;var u=null,o=null;return Array.isArray(i)?o=function(t){if(!t||!t.length)return null;for(var n=0;n<t.length;n++)t[n].e&&(t[n].e=wt(t[n].e));return t.sort(kt)}(i):(o=i.keys,u=i.data||null),o?St(n,r,e,o,u):null}function Mt(t,n,r){if(!r)return null;var e=[];for(var i in r)if(r.hasOwnProperty(i)){var u=_t(t,n,i,r[i]);u&&e.push(u)}return e.length?e:null}function It(t,n){if(!n.duration||n.duration<0)return null;var r=function(t,n){if(!n)return null;var r=[];if(Array.isArray(n))for(var e=n.length,i=0;i<e;i++){var u=n[i];if(2===u.length){var o=null;if("string"==typeof u[0])o=t.getElementById(u[0]);else if(Array.isArray(u[0])){o=[];for(var a=0;a<u[0].length;a++)if("string"==typeof u[0][a]){var l=t.getElementById(u[0][a]);l&&o.push(l)}o=o.length?1===o.length?o[0]:new gt(o):null}if(o){var f=Mt(t,o,u[1]);f&&(r=r.concat(f))}}}else for(var s in n)if(n.hasOwnProperty(s)){var c=t.getElementById(s);if(c){var v=Mt(t,c,n[s]);v&&(r=r.concat(v))}}return r.length?r:null}(t,n.elements);return r?function(t,n){var r=arguments.length>2&&void 0!==arguments[2]?arguments[2]:1/0,e=arguments.length>3&&void 0!==arguments[3]?arguments[3]:1,i=arguments.length>4&&void 0!==arguments[4]&&arguments[4],u=arguments.length>5&&void 0!==arguments[5]?arguments[5]:1,o=t.length,a=e>0?n:0;i&&r%2==0&&(a=n-a);var l=null;return function(f,s){var c=f%n,v=1+(f-c)/n;s*=e,i&&v%2==0&&(s=-s);var h=!1;if(v>r)c=a,h=!0,-1===u&&(c=e>0?0:n);else if(s<0&&(c=n-c),c===l)return!1;l=c;for(var y=0;y<o;y++)t[y](c);return h}}(r,n.duration,n.iterations||1/0,n.direction||1,!!n.alternate,n.fill||1):null}var Et=function(){function t(r){var e=arguments.length>1&&void 0!==arguments[1]?arguments[1]:{};n(this,t),this._id=0,this._running=!1,this._animations=r,this.direction=e.direction||1,this.speed=e.speed||1,this.fps=e.fps||100,this.offset=e.offset||0}return e(t,[{key:"_start",value:function(){var t=this,n=arguments.length>0&&void 0!==arguments[0]?arguments[0]:0,r=-1/0,e=null,i={},u=function u(o){t._running=!0,null==e&&(e=o);var a=Math.round((o-e+n)*t.speed),l=t.fps?1e3/t.fps:0;if(a>r+l){t.offset=a,r=a;for(var f=t._animations,s=f.length,c=0,v=0;v<s;v++)i[v]?c++:(i[v]=f[v](a,t.direction),i[v]&&c++);if(c===s)return void t._stop()}t._id=window.requestAnimationFrame(u)};this._id=window.requestAnimationFrame(u)}},{key:"_stop",value:function(){this._id&&window.cancelAnimationFrame(this._id),this._running=!1}},{key:"play",value:function(){this._running||this._start(this.offset)}},{key:"stop",value:function(){this._stop(),this.offset=0;var t=this.direction,n=this._animations;requestAnimationFrame((function(){for(var r=0;r<n.length;r++)n[r](0,t)}))}},{key:"restart",value:function(){this._stop(),this.offset=0,this._start()}},{key:"pause",value:function(){this._stop()}},{key:"reverse",value:function(){this.direction=-this.direction}}],[{key:"build",value:function(n){if(!(n=function(t){if(!t||!t.root||!Array.isArray(t.animations))return null;var n=window.document.getElementById(t.root);if(!n)return null;var r=t.animations.map((function(t){return It(n,t)})).filter((function(t){return!!t}));return r.length?{element:n,animations:r,options:t.options||void 0}:null}(n)))return null;var r=n.element,e=n.options||{},i=new t(n.animations,n.options);return function(t,n,r){var e=arguments.length>3&&void 0!==arguments[3]?arguments[3]:null;if("click"===r){return void n.addEventListener("click",(function r(){n.removeEventListener("click",r),t.play()}))}if("hover"===r)return n.addEventListener("mouseenter",(function(){return t.play()})),void n.addEventListener("mouseleave","freeze"===e?function(){return t.pause()}:function(){return t.stop()});t.play()}(i,r,e.start,e.hover),i}}]),t}();return function(){for(var t=0,n=["ms","moz","webkit","o"],r=0;r<n.length&&!window.requestAnimationFrame;++r)window.requestAnimationFrame=window[n[r]+"RequestAnimationFrame"],window.cancelAnimationFrame=window[n[r]+"CancelAnimationFrame"]||window[n[r]+"CancelRequestAnimationFrame"];window.requestAnimationFrame||(window.requestAnimationFrame=function(n){var r=Date.now(),e=Math.max(0,16-(r-t)),i=window.setTimeout((function(){n(r+e)}),e);return t=r+e,i},window.cancelAnimationFrame=window.clearTimeout)}(),Et}));
__SVGATOR_PLAYER__.build({"root":"eat3rvuy9qb1","animations":[{"duration":10000,"direction":1,"iterations":1,"fill":1,"alternate":false,"elements":{"eat3rvuy9qb37":{"transform":{"data":{"r":0.16511718628978805,"k":{"x":-1.8536905440983015e-17,"y":0},"s":{"x":2.6809311325500325,"y":2.6809311325500325}},"keys":{"o":[{"t":1700,"v":{"x":-1309.2231616293843,"y":-315.1604068091358,"type":"corner"}},{"t":2800,"v":{"x":-1309.22,"y":-639.509,"type":"corner"}}]}}},"eat3rvuy9qb48":{"transform":{"data":{"s":{"x":0.857402,"y":0.987013}},"keys":{"o":[{"t":1000,"v":{"x":92.63791179610149,"y":106.0882070460443,"type":"corner"}},{"t":2100,"v":{"x":92.4138,"y":5.70816,"type":"corner"}}]}}},"eat3rvuy9qb54":{"transform":{"data":{"s":{"x":0.913827,"y":0.981381}},"keys":{"o":[{"t":1000,"v":{"x":56.68456873622423,"y":90.00044364430157,"type":"corner"}},{"t":2100,"v":{"x":56.4656,"y":8.18312,"type":"corner"}}]}}},"eat3rvuy9qb59":{"transform":{"keys":{"o":[{"t":600,"v":{"x":0.13323861286091976,"y":46.23871887019269,"type":"corner"}},{"t":1600,"v":{"x":0,"y":0,"type":"corner"}}]}}},"eat3rvuy9qb63":{"transform":{"data":{"r":-0.16512680178682632,"s":{"x":0.3730045490794985,"y":0.3730045490794985}},"keys":{"o":[{"t":700,"v":{"x":489.031,"y":237.132,"type":"corner"}},{"t":800,"v":{"x":489.03624782798494,"y":238.68660419381442,"type":"corner"}}]}}},"eat3rvuy9qb65":{"transform":{"keys":{"o":[{"t":300,"v":{"x":0.0020447148651476788,"y":79.94267967535363,"type":"corner"}},{"t":700,"v":{"x":0,"y":0,"type":"corner"}},{"t":800,"v":{"x":0,"y":0,"type":"corner"}}]}}},"eat3rvuy9qb75":{"transform":{"data":{"r":-0.1649727540287582,"s":{"x":0.18650277309734564,"y":0.18650277309734564},"t":{"x":-353.99713134605514,"y":-502.60899353226625}},"keys":{"o":[{"t":0,"v":{"x":721.4871582295542,"y":459.46424809413156,"type":"corner"}},{"t":300,"v":{"x":722.2060740198287,"y":427.5514860522219,"type":"corner"}}]}}},"eat3rvuy9qb78":{"transform":{"data":{"s":{"x":2,"y":2},"t":{"x":-561.0351257367463,"y":-512.9229888891223}},"keys":{"o":[{"t":0,"v":{"x":353.9969095267791,"y":324.2348743988449,"type":"corner"}},{"t":400,"v":{"x":353.29825147349254,"y":502.62997777824455,"type":"corner"}}]}}},"eat3rvuy9qb80":{"transform":{"data":{"r":-0.16512680178682632,"s":{"x":0.3730045490794985,"y":0.3730045490794985}},"keys":{"o":[{"t":0,"v":{"x":582.1606509433265,"y":286.5418451956087,"type":"corner"}},{"t":400,"v":{"x":582.071,"y":222.384,"type":"corner"}}]}}},"eat3rvuy9qb83":{"transform":{"keys":{"o":[{"t":0,"v":{"x":-187.27881924093657,"y":-133.90637433232635,"type":"corner"}},{"t":500,"v":{"x":-187.279,"y":38.2044,"type":"corner"}}]}}},"eat3rvuy9qb85":{"transform":{"data":{"r":-0.16512680178682632,"s":{"x":0.3730045490794985,"y":0.3730045490794985}},"keys":{"o":[{"t":0,"v":{"x":482.1485554745074,"y":286.8300588553197,"type":"corner"}},{"t":300,"v":{"x":481.966,"y":223.992,"type":"corner"}}]}}},"eat3rvuy9qb88":{"transform":{"keys":{"o":[{"t":0,"v":{"x":81.11078943708793,"y":-136.25964814010334,"type":"corner"}},{"t":300,"v":{"x":82.09673320337356,"y":22.471576776788876,"type":"corner"}},{"t":400,"v":{"x":81.1075,"y":34.6683,"type":"corner"}}]}}},"eat3rvuy9qb90":{"transform":{"data":{"r":-0.16515726638637773,"s":{"x":0.1273185289461043,"y":0.1273185289461043}},"keys":{"o":[{"t":0,"v":{"x":560.5339545394949,"y":389.9326893634372,"type":"corner"}},{"t":600,"v":{"x":560.471,"y":368.629,"type":"corner"}}]}}},"eat3rvuy9qb93":{"transform":{"data":{"s":{"x":2.92969,"y":2.92969}},"keys":{"o":[{"t":0,"v":{"x":-375.7161536210419,"y":-1211.5215913226484,"type":"corner"}},{"t":700,"v":{"x":-375.706,"y":-1036.22,"type":"corner"}}]}}},"eat3rvuy9qb99":{"transform":{"data":{"r":0.16417683988607734,"k":{"x":-2,"y":0},"s":{"x":2.6809310061103773,"y":2.665681194795271},"t":{"x":-669.1559495960064,"y":-281.8305113534841}},"keys":{"o":[{"t":1500,"v":{"x":482.5561205058015,"y":13.334616869607032,"type":"corner"}},{"t":2500,"v":{"x":482.5561458602089,"y":121.71359520443825,"type":"corner"}}]}}},"eat3rvuy9qb105":{"transform":{"keys":{"o":[{"t":1100,"v":{"x":96.28793143294334,"y":0.0029733206954722924,"type":"corner"}},{"t":1600,"v":{"x":0,"y":0,"type":"corner"}}]}}},"eat3rvuy9qb109":{"transform":{"keys":{"o":[{"t":1100,"v":{"x":-38.36102007522411,"y":-0.0020388988259019206,"type":"corner"}},{"t":1600,"v":{"x":0,"y":0,"type":"corner"}}]}}},"eat3rvuy9qb113":{"transform":{"data":{"r":0.11094104041867467,"k":{"x":-0.13478638522194514,"y":0},"s":{"x":2.580714837813159,"y":1.7340711494808694}},"keys":{"o":[{"t":200,"v":{"x":-1310.6886564115878,"y":87.5511012917843,"type":"corner"}},{"t":1200,"v":{"x":-1310.69,"y":-221.339,"type":"corner"}}]}}},"eat3rvuy9qb124":{"transform":{"data":{"k":{"x":-1.8536905440983015e-17,"y":0},"t":{"x":-579.2845418890258,"y":-370.62245023307077}},"keys":{"o":[{"t":1000,"v":{"x":370.92788104810484,"y":540.0455082328375,"type":"cusp","end":{"x":498.20077835467055,"y":521.4856517988264}}},{"t":2800,"v":{"x":613.0098373511229,"y":378.59747453098885,"type":"cusp","start":{"x":609.3270915666278,"y":477.34532547136},"end":{"x":609.4179525644688,"y":274.35215247614286}}},{"t":4200,"v":{"x":366.9025624246582,"y":226.73042410207705,"type":"cusp","start":{"x":453.9789517262341,"y":193.47097879183625},"end":{"x":228.61998139376132,"y":265.97874093438355}}},{"t":5000,"v":{"x":178.64208499062664,"y":359.1886916494786,"type":"cusp","start":{"x":190.93841344675425,"y":349.6350267195851}},"e":[0,0,0.58,1]}],"r":[{"t":1000,"v":34},{"t":1500,"v":55},{"t":2300,"v":25},{"t":4200,"v":20},{"t":5000,"v":0.17}],"s":[{"t":1000,"v":{"x":0.5,"y":0.5}},{"t":2100,"v":{"x":1.28,"y":1.5}},{"t":4200,"v":{"x":1.23,"y":0.7000000000000001}},{"t":5000,"v":{"x":2.6809311325500325,"y":2.6809311325500325}}]}},"opacity":[{"t":0,"v":0},{"t":900,"v":0},{"t":1000,"v":1}]}}}],"options":{"start":"load","hover":"freeze"}})]]></script></svg>