<?xml version="1.0" encoding="UTF-8" standalone="no"?>
<!DOCTYPE svg PUBLIC "-//W3C//DTD SVG 1.1//EN" "http://www.w3.org/Graphics/SVG/1.1/DTD/svg11.dtd">
<svg width="100%" height="100%" viewBox="0 0 800 650" version="1.1" xmlns="http://www.w3.org/2000/svg" xmlns:xlink="http://www.w3.org/1999/xlink" xml:space="preserve" xmlns:serif="http://www.serif.com/" style="fill-rule:evenodd;clip-rule:evenodd;stroke-linecap:round;stroke-linejoin:round;stroke-miterlimit:1.5;">
    <g id="SiteFlytLogo" transform="matrix(2.68092,0.00772567,-0.00772567,2.68092,-1371.49,-638.896)">
        <path id="OuterCircle" d="M588.858,443.935C573.973,426.932 564.947,404.669 564.947,380.315C564.947,326.966 608.261,283.652 661.61,283.652C714.96,283.652 758.273,326.966 758.273,380.315C758.273,404.68 749.239,426.952 734.338,443.963C730.651,443.18 726.952,442.456 723.242,441.791C739.082,426.061 748.886,404.319 748.886,380.315C748.886,332.376 709.779,293.455 661.61,293.455C613.442,293.455 574.335,332.376 574.335,380.315C574.335,404.309 584.131,426.044 599.955,441.768C596.244,442.431 592.545,443.153 588.858,443.935Z" style="fill:rgb(4,154,214);stroke:white;stroke-width:0.37px;"/>
        <g id="Highrise3Clip" transform="matrix(0.373003,-0.00107489,0.00107489,0.373003,489.031,237.132)">
            <path d="M486.568,216.611L550.06,263.216L549.289,546.08L485.575,545.842L486.568,216.611ZM482.087,219.04L453.625,252.47L452.89,546.013L481.244,546.161L482.087,219.04Z" style="fill:none;"/>
            <clipPath id="_clip1">
                <path d="M486.568,216.611L550.06,263.216L549.289,546.08L485.575,545.842L486.568,216.611ZM482.087,219.04L453.625,252.47L452.89,546.013L481.244,546.161L482.087,219.04Z"/>
            </clipPath>
            <g clip-path="url(#_clip1)">
                <g id="Highrise3" transform="matrix(2.68092,0.00772567,-0.00772567,2.68092,-1309.22,-639.509)">
                    <g id="H3Sidewall" transform="matrix(1.24343,0,0,1.00674,-160.559,-2.96059)">
                        <path d="M666.61,321.216L659.382,331.828L659.382,439.516L666.61,439.516L666.61,321.216Z" style="fill:none;stroke:white;stroke-width:1.15px;stroke-linejoin:miter;stroke-miterlimit:5;"/>
                        <path d="M666.61,321.216L659.382,331.828L659.382,439.516L666.61,439.516L666.61,321.216Z" style="fill:rgb(4,154,214);"/>
                    </g>
                    <g id="H3Facade">
                        <path d="M671.44,318.744L693.787,335.095L693.787,439.516L671.44,439.516L671.44,318.744Z" style="fill:none;stroke:white;stroke-width:1.12px;stroke-linejoin:miter;stroke-miterlimit:5;"/>
                        <path d="M671.44,318.744L693.787,335.095L693.787,439.516L671.44,439.516L671.44,318.744Z" style="fill:rgb(54,88,116);"/>
                    </g>
                    <path id="H3Windows" d="M676.091,360.902L680.9,362.984L680.9,366.878L676.091,364.71L676.091,360.902ZM684.039,360L688.848,362.082L688.848,365.976L684.039,363.808L684.039,360ZM676.091,350.618L680.9,352.7L680.9,356.594L676.091,354.426L676.091,350.618ZM684.039,349.716L688.848,351.797L688.848,355.692L684.039,353.524L684.039,349.716ZM676.091,339.749L680.9,341.831L680.9,345.725L676.091,343.557L676.091,339.749ZM684.039,338.847L688.848,340.929L688.848,344.823L684.039,342.655L684.039,338.847ZM676.091,330.678L680.9,332.76L680.9,336.655L676.091,334.487L676.091,330.678Z" style="fill:white;"/>
                </g>
            </g>
        </g>
        <g id="Highrise1Clip" transform="matrix(1.31082,-8.67362e-19,8.67362e-19,1.01316,-202.333,-5.78327)">
            <path d="M642.143,337.278L655.355,342.056L655.355,439.516L642.143,439.516L642.143,337.278Z" style="fill:none;"/>
            <clipPath id="_clip2">
                <path d="M642.143,337.278L655.355,342.056L655.355,439.516L642.143,439.516L642.143,337.278Z"/>
            </clipPath>
            <g clip-path="url(#_clip2)">
                <g id="Highrise1" transform="matrix(0.857402,4.33681e-19,-4.33681e-19,0.987013,92.4138,5.70816)">
                    <path d="M642.143,337.278L655.355,342.056L655.355,439.516L642.143,439.516L642.143,337.278Z" style="fill:none;stroke:white;stroke-width:1.75px;stroke-linejoin:miter;stroke-miterlimit:5;"/>
                    <path d="M642.143,337.278L655.355,342.056L655.355,439.516L642.143,439.516L642.143,337.278Z" style="fill:rgb(54,88,116);"/>
                </g>
            </g>
        </g>
        <g id="Highrise2Clip" transform="matrix(1.0943,-4.33681e-19,-8.67362e-19,1.01897,-61.7903,-8.33837)">
            <path d="M645.691,355.692L666.61,364.168L666.61,439.516L645.691,439.516L645.691,355.692Z" style="fill:none;"/>
            <clipPath id="_clip3">
                <path d="M645.691,355.692L666.61,364.168L666.61,439.516L645.691,439.516L645.691,355.692Z"/>
            </clipPath>
            <g clip-path="url(#_clip3)">
                <g id="Highrise2" transform="matrix(0.913827,4.33681e-19,4.33681e-19,0.981381,56.4656,8.18312)">
                    <path d="M645.691,355.692L666.61,364.168L666.61,439.516L645.691,439.516L645.691,355.692Z" style="fill:none;stroke:white;stroke-width:1.87px;stroke-linejoin:miter;stroke-miterlimit:5;"/>
                    <path d="M645.691,355.692L666.61,364.168L666.61,439.516L645.691,439.516L645.691,355.692Z" style="fill:rgb(54,88,116);"/>
                </g>
            </g>
        </g>
        <path id="Highrise4Clip" d="M649.697,397.788L664.633,393.248L691.4,405.099L691.4,439.516L652.594,439.516L649.697,397.788Z" style="fill:none;"/>
        <clipPath id="_clip4">
            <path id="Highrise4Clip1" serif:id="Highrise4Clip" d="M649.697,397.788L664.633,393.248L691.4,405.099L691.4,439.516L652.594,439.516L649.697,397.788Z"/>
        </clipPath>
        <g clip-path="url(#_clip4)">
            <g id="Highrise4">
                <path id="H4Facade" d="M649.697,397.788L664.633,393.248L691.4,405.099L691.4,439.516L652.594,439.516L649.697,397.788Z" style="fill:white;"/>
                <path id="H4Windows" d="M674.254,429.476L680.66,431.561L680.66,438.407L674.254,436.486L674.254,429.476ZM674.254,418.744L680.66,420.83L680.66,427.675L674.254,425.754L674.254,418.744ZM674.254,408.003L680.66,410.088L680.66,416.934L674.254,415.013L674.254,408.003Z" style="fill:rgb(54,88,116);"/>
                <path id="H4Sidewall" d="M651.847,400.818L651.568,439.516L664.633,439.516L664.633,400.082L682.359,408.003L683.109,406.614L664.633,397.788L651.847,400.818Z" style="fill:rgb(54,88,116);"/>
            </g>
        </g>
        <g id="HouseClip" transform="matrix(0.373003,-0.00107489,0.00107489,0.373003,489.031,237.132)">
            <path d="M378.429,466.372L431.891,483.196L467.135,542.565L423.719,542.44L331.405,542.902L329.26,545.993L324.855,542.935L375.391,470.132L375.578,470.447L378.429,466.372Z" style="fill:none;"/>
            <clipPath id="_clip5">
                <path d="M378.429,466.372L431.891,483.196L467.135,542.565L423.719,542.44L331.405,542.902L329.26,545.993L324.855,542.935L375.391,470.132L375.578,470.447L378.429,466.372Z"/>
            </clipPath>
            <g clip-path="url(#_clip5)">
                <g id="HouseFacede" transform="matrix(2.68092,0.00772567,-0.00772567,2.68092,-1309.22,-639.509)">
                    <path d="M610.787,439.299L630.688,410.683L647.663,439.008L610.787,439.299Z" style="fill:white;"/>
                </g>
                <g id="HouseWindow" transform="matrix(2.68092,0.00772567,-0.00772567,2.68092,-1309.22,-639.509)">
                    <path d="M629.839,432.324L627.084,432.324L627.084,435.623L629.839,435.623L629.839,432.324ZM634.248,432.324L631.494,432.324L631.494,435.623L634.248,435.623L634.248,432.324ZM629.839,428.049L627.084,428.049L627.084,431.349L629.839,431.349L629.839,428.049ZM634.248,428.049L631.494,428.049L631.494,431.349L634.248,431.349L634.248,428.049Z" style="fill:rgb(4,154,214);"/>
                </g>
                <g id="HouseRoofL" transform="matrix(1.47899,-2.13069,1.53105,1.06276,-1187.11,1379.36)">
                    <path d="M630.553,413.399L597.325,413.399L597.325,410.522L631.494,410.522L630.553,413.399Z" style="fill:rgb(4,154,214);"/>
                </g>
                <g id="HouseRoofR" transform="matrix(2.68092,0.00772567,-0.00772567,2.68092,-1306.18,-643.268)">
                    <path d="M649.518,418.307L662.728,440.414L646.53,440.414L629.558,412.089L649.518,418.307Z" style="fill:rgb(54,88,116);"/>
                </g>
            </g>
        </g>
        <g id="Trees">
            <g id="Tree4Clip" transform="matrix(0.186502,-0.000537446,0.000537446,0.186502,655.915,334.004)">
                <path d="M353.864,415.593C401.053,442.651 402.535,523.811 400,589.625L307.727,589.625C305.537,525.051 309.374,447.886 353.864,415.593Z" style="fill:none;"/>
                <clipPath id="_clip6">
                    <path d="M353.864,415.593C401.053,442.651 402.535,523.811 400,589.625L307.727,589.625C305.537,525.051 309.374,447.886 353.864,415.593Z"/>
                </clipPath>
                <g clip-path="url(#_clip6)">
                    <g id="Tree4" transform="matrix(2,1.92593e-34,-1.92593e-34,2,-768.772,-523.216)">
                        <path d="M559.525,527.532C556.613,524.497 549.633,515.732 549.451,501.311C549.217,482.713 561.751,470.889 561.751,470.889C561.751,470.889 572.929,486.294 572.616,501.163C572.371,512.778 565.288,523.072 562.199,527.022L562.118,554.957L559.446,554.949L559.525,527.532Z" style="fill:rgb(0,138,78);"/>
                    </g>
                </g>
            </g>
            <g id="Tree3Clip" transform="matrix(0.373003,-0.00107489,0.00107489,0.373003,582.071,222.384)">
                <path d="M353.864,415.593C401.053,442.651 402.535,523.811 400,589.625L307.727,589.625C305.537,525.051 309.374,447.886 353.864,415.593Z" style="fill:none;"/>
                <clipPath id="_clip7">
                    <path d="M353.864,415.593C401.053,442.651 402.535,523.811 400,589.625L307.727,589.625C305.537,525.051 309.374,447.886 353.864,415.593Z"/>
                </clipPath>
                <g clip-path="url(#_clip7)">
                    <g id="Tree3" transform="matrix(1,0,0,1,-187.279,38.2044)">
                        <path d="M538.939,499.373C534.431,494.675 523.627,481.109 523.346,458.787C522.984,430 542.384,411.7 542.384,411.7C542.384,411.7 559.685,435.544 559.201,458.559C558.822,476.536 547.859,492.469 543.077,498.584L542.925,551.421L538.789,551.409L538.939,499.373Z" style="fill:rgb(0,138,78);"/>
                    </g>
                </g>
            </g>
            <g id="Tree2Clip" transform="matrix(0.373003,-0.00107489,0.00107489,0.373003,481.966,223.992)">
                <path d="M353.864,415.593C401.053,442.651 402.535,523.811 400,589.625L307.727,589.625C305.537,525.051 309.374,447.886 353.864,415.593Z" style="fill:none;"/>
                <clipPath id="_clip8">
                    <path d="M353.864,415.593C401.053,442.651 402.535,523.811 400,589.625L307.727,589.625C305.537,525.051 309.374,447.886 353.864,415.593Z"/>
                </clipPath>
                <g clip-path="url(#_clip8)">
                    <g id="Tree2" transform="matrix(1,0,0,1,81.1075,34.6683)">
                        <path d="M269.533,515.197C264.533,509.969 254.221,496.626 253.939,475.266C253.558,446.48 273.752,428.181 273.752,428.181C273.752,428.181 291.766,452.027 291.264,475.042C290.849,494.092 278.061,510.845 273.667,516.052L273.571,549.39L269.435,549.378L269.533,515.197Z" style="fill:rgb(0,138,78);"/>
                    </g>
                </g>
            </g>
            <g id="Tree1Clip" transform="matrix(0.127318,-0.000366897,0.000366897,0.127318,560.471,368.629)">
                <path d="M353.864,415.593C401.053,442.651 402.535,523.811 400,589.625L307.727,589.625C305.537,525.051 309.374,447.886 353.864,415.593Z" style="fill:none;"/>
                <clipPath id="_clip9">
                    <path d="M353.864,415.593C401.053,442.651 402.535,523.811 400,589.625L307.727,589.625C305.537,525.051 309.374,447.886 353.864,415.593Z"/>
                </clipPath>
                <g clip-path="url(#_clip9)">
                    <g id="Tree1" transform="matrix(2.92969,4.40226e-18,-4.40226e-18,2.92969,-375.706,-1036.22)">
                        <path d="M247.448,541.761C245.163,539.379 239.686,532.501 239.543,521.184C239.36,506.589 249.195,497.311 249.195,497.311C249.195,497.311 257.967,509.4 257.721,521.068C257.529,530.183 251.971,538.261 249.547,541.361L249.516,552.11L247.419,552.104L247.448,541.761Z" style="fill:rgb(0,138,78);"/>
                    </g>
                </g>
            </g>
        </g>
        <g id="Crane">
            <g id="HookClip" transform="matrix(0.373003,-0.00107489,0.00108104,0.375137,489.03,236.69)">
                <rect x="455.933" y="123.148" width="49.898" height="93.407" style="fill:none;"/>
                <clipPath id="_clip10">
                    <rect x="455.933" y="123.148" width="49.898" height="93.407"/>
                </clipPath>
                <g clip-path="url(#_clip10)">
                    <g id="Hook" transform="matrix(2.68092,0.00768172,-0.00772567,2.66567,-1309.22,-634.694)">
                        <path d="M667.622,295.225L670.639,295.225L670.639,281.848L672.611,281.848L672.611,295.225L675.225,295.225L670.03,304.399C670.03,304.565 670.029,304.753 670.028,304.965C670.025,305.75 669.183,306.012 668.155,306.43C667.726,306.605 667.327,306.879 667.035,307.282C666.245,308.372 666.488,309.898 667.577,310.688C668.667,311.477 670.193,311.234 670.982,310.145C671.055,310.045 671.118,309.942 671.173,309.836L671.176,309.838C671.327,309.567 671.616,309.384 671.948,309.384C672.436,309.384 672.832,309.78 672.832,310.268C672.832,310.443 672.781,310.606 672.692,310.744C672.61,310.894 672.517,311.04 672.414,311.183C671.051,313.062 668.419,313.481 666.54,312.119C664.66,310.756 664.241,308.124 665.603,306.245C666.266,305.33 667.558,305.08 668.001,304.562C668.077,304.473 668.131,304.344 668.17,304.2L663.087,295.225L665.65,295.225L665.65,281.848L667.622,281.848L667.622,295.225Z" style="fill:none;stroke:white;stroke-width:0.75px;"/>
                        <path d="M667.622,295.225L670.639,295.225L670.639,281.848L672.611,281.848L672.611,295.225L675.225,295.225L670.03,304.399C670.03,304.565 670.029,304.753 670.028,304.965C670.025,305.75 669.183,306.012 668.155,306.43C667.726,306.605 667.327,306.879 667.035,307.282C666.245,308.372 666.488,309.898 667.577,310.688C668.667,311.477 670.193,311.234 670.982,310.145C671.055,310.045 671.118,309.942 671.173,309.836L671.176,309.838C671.327,309.567 671.616,309.384 671.948,309.384C672.436,309.384 672.832,309.78 672.832,310.268C672.832,310.443 672.781,310.606 672.692,310.744C672.61,310.894 672.517,311.04 672.414,311.183C671.051,313.062 668.419,313.481 666.54,312.119C664.66,310.756 664.241,308.124 665.603,306.245C666.266,305.33 667.558,305.08 668.001,304.562C668.077,304.473 668.131,304.344 668.17,304.2L663.087,295.225L665.65,295.225L665.65,281.848L667.622,281.848L667.622,295.225Z" style="fill:rgb(54,88,116);"/>
                    </g>
                </g>
            </g>
            <g id="ArmLeftClip" transform="matrix(0.373003,-0.00107489,0.00107489,0.373003,489.031,237.132)">
                <path d="M471.416,104.829L555.301,78.108L556.546,81.906L484.371,104.866L550.306,105.092L550.248,123.534L454.476,123.37L471.416,104.829Z" style="fill:none;"/>
                <clipPath id="_clip11">
                    <path d="M471.416,104.829L555.301,78.108L556.546,81.906L484.371,104.866L550.306,105.092L550.248,123.534L454.476,123.37L471.416,104.829Z"/>
                </clipPath>
                <g clip-path="url(#_clip11)">
                    <path id="ArmLeft" d="M471.776,105.442L471.776,105.442L554.919,78.973L555.729,81.517L480.497,105.467L549.738,105.667L549.688,122.954L471.732,122.729L471.732,122.735L455.933,122.684L471.776,105.442L471.776,105.442Z" style="fill:rgb(54,88,116);stroke:white;stroke-width:1px;"/>
                </g>
            </g>
            <g id="ArmRightClip" transform="matrix(0.373003,-0.00107489,0.00107489,0.373003,489.031,237.132)">
                <path d="M610.369,105.248L576.972,81.473L579.236,78.365L617.74,105.542L617.66,123.844L579.191,123.71L579.242,105.125L610.369,105.248Z" style="fill:none;"/>
                <clipPath id="_clip12">
                    <path d="M610.369,105.248L576.972,81.473L579.236,78.365L617.74,105.542L617.66,123.844L579.191,123.71L579.242,105.125L610.369,105.248Z"/>
                </clipPath>
                <g clip-path="url(#_clip12)">
                    <path id="ArmRight" d="M612.307,105.847L577.772,81.345L579.317,79.168L616.939,105.86L616.939,105.861L617.009,105.861L616.959,123.148L579.191,123.039L579.241,105.752L612.307,105.847Z" style="fill:rgb(54,88,116);stroke:white;stroke-width:1px;"/>
                </g>
            </g>
            <g id="RiserClip" transform="matrix(0.387487,-0.00111663,0.00166182,0.576676,480.693,126.177)">
                <path d="M579.521,242.84L553.595,242.732L552.272,545.716L578.356,545.809L579.521,242.84Z" style="fill:none;"/>
                <clipPath id="_clip13">
                    <path d="M579.521,242.84L553.595,242.732L552.272,545.716L578.356,545.809L579.521,242.84Z"/>
                </clipPath>
                <g clip-path="url(#_clip13)">
                    <g id="Riser" transform="matrix(2.58071,0.00499709,-0.00743689,1.73406,-1310.69,-221.339)">
                        <path d="M725.399,269.738L731.014,266.471L731.014,266.012L732.754,266.012L732.754,439.753L731.014,439.753L731.014,435.739L725.399,439.006L725.399,439.753L723.66,439.753L723.66,436.626L723.653,436.614L723.66,436.61L723.66,430.911L723.653,430.9L723.66,430.896L723.66,425.18L723.653,425.168L723.66,425.164L723.66,419.494L723.653,419.482L723.66,419.478L723.66,413.729L723.653,413.717L723.66,413.713L723.66,408.041L723.653,408.029L723.66,408.025L723.66,402.303L723.653,402.291L723.66,402.287L723.66,396.588L723.653,396.576L723.66,396.572L723.66,390.856L723.653,390.844L723.66,390.84L723.66,385.17L723.653,385.158L723.66,385.154L723.66,379.405L723.653,379.394L723.66,379.39L723.66,373.718L723.653,373.706L723.66,373.702L723.66,368.005L723.653,367.993L723.66,367.989L723.66,362.29L723.653,362.278L723.66,362.274L723.66,356.558L723.653,356.546L723.66,356.542L723.66,350.872L723.653,350.86L723.66,350.856L723.66,345.107L723.653,345.096L723.66,345.092L723.66,339.42L723.653,339.408L723.66,339.404L723.66,333.681L723.653,333.669L723.66,333.665L723.66,327.966L723.653,327.955L723.66,327.951L723.66,322.235L723.653,322.223L723.66,322.219L723.66,316.549L723.653,316.537L723.66,316.533L723.66,310.784L723.653,310.772L723.66,310.768L723.66,305.096L723.653,305.084L723.66,305.08L723.66,299.351L723.653,299.339L723.66,299.335L723.66,293.636L723.653,293.625L723.66,293.621L723.66,287.905L723.653,287.893L723.66,287.889L723.66,282.219L723.653,282.207L723.66,282.203L723.66,276.454L723.653,276.442L723.66,276.438L723.66,270.766L723.653,270.754L723.66,270.75L723.66,266.012L725.399,266.012L725.399,269.738ZM725.399,433.292L725.399,435.598L731.014,432.331L731.014,430.024L725.399,433.292ZM725.399,427.56L725.399,429.883L731.014,426.616L731.014,424.293L725.399,427.56ZM725.399,421.874L725.399,424.152L731.014,420.885L731.014,418.607L725.399,421.874ZM725.399,416.109L725.399,418.466L731.014,415.199L731.014,412.842L725.399,416.109ZM725.399,410.421L725.399,412.701L731.014,409.434L731.014,407.154L725.399,410.421ZM725.399,404.683L725.399,407.013L731.014,403.746L731.014,401.416L725.399,404.683ZM725.399,398.968L725.399,401.275L731.014,398.008L731.014,395.701L725.399,398.968ZM725.399,393.236L725.399,395.56L731.014,392.293L731.014,389.969L725.399,393.236ZM725.399,387.55L725.399,389.828L731.014,386.561L731.014,384.283L725.399,387.55ZM725.399,381.786L725.399,384.142L731.014,380.875L731.014,378.519L725.399,381.786ZM725.399,376.098L725.399,378.377L731.014,375.11L731.014,372.831L725.399,376.098ZM725.399,370.385L725.399,372.69L731.014,369.423L731.014,367.118L725.399,370.385ZM725.399,364.67L725.399,366.977L731.014,363.71L731.014,361.403L725.399,364.67ZM725.399,358.938L725.399,361.262L731.014,357.995L731.014,355.671L725.399,358.938ZM725.399,353.252L725.399,355.53L731.014,352.263L731.014,349.985L725.399,353.252ZM725.399,347.487L725.399,349.844L731.014,346.577L731.014,344.22L725.399,347.487ZM725.399,341.8L725.399,344.079L731.014,340.812L731.014,338.533L725.399,341.8ZM725.399,336.061L725.399,338.392L731.014,335.125L731.014,332.794L725.399,336.061ZM725.399,330.347L725.399,332.653L731.014,329.386L731.014,327.08L725.399,330.347ZM725.399,324.615L725.399,326.938L731.014,323.671L731.014,321.348L725.399,324.615ZM725.399,318.929L725.399,321.207L731.014,317.94L731.014,315.662L725.399,318.929ZM725.399,313.164L725.399,315.521L731.014,312.254L731.014,309.897L725.399,313.164ZM725.399,307.476L725.399,309.756L731.014,306.489L731.014,304.209L725.399,307.476ZM725.399,301.731L725.399,304.068L731.014,300.801L731.014,298.464L725.399,301.731ZM725.399,296.017L725.399,298.323L731.014,295.056L731.014,292.749L725.399,296.017ZM725.399,290.285L725.399,292.608L731.014,289.341L731.014,287.018L725.399,290.285ZM725.399,284.599L725.399,286.877L731.014,283.61L731.014,281.332L725.399,284.599ZM725.399,278.834L725.399,281.191L731.014,277.924L731.014,275.567L725.399,278.834ZM725.399,273.146L725.399,275.426L731.014,272.159L731.014,269.879L725.399,273.146Z" style="fill:none;stroke:white;stroke-width:0.75px;"/>
                        <path d="M725.399,269.738L731.014,266.471L731.014,266.012L732.754,266.012L732.754,439.753L731.014,439.753L731.014,435.739L725.399,439.006L725.399,439.753L723.66,439.753L723.66,436.626L723.653,436.614L723.66,436.61L723.66,430.911L723.653,430.9L723.66,430.896L723.66,425.18L723.653,425.168L723.66,425.164L723.66,419.494L723.653,419.482L723.66,419.478L723.66,413.729L723.653,413.717L723.66,413.713L723.66,408.041L723.653,408.029L723.66,408.025L723.66,402.303L723.653,402.291L723.66,402.287L723.66,396.588L723.653,396.576L723.66,396.572L723.66,390.856L723.653,390.844L723.66,390.84L723.66,385.17L723.653,385.158L723.66,385.154L723.66,379.405L723.653,379.394L723.66,379.39L723.66,373.718L723.653,373.706L723.66,373.702L723.66,368.005L723.653,367.993L723.66,367.989L723.66,362.29L723.653,362.278L723.66,362.274L723.66,356.558L723.653,356.546L723.66,356.542L723.66,350.872L723.653,350.86L723.66,350.856L723.66,345.107L723.653,345.096L723.66,345.092L723.66,339.42L723.653,339.408L723.66,339.404L723.66,333.681L723.653,333.669L723.66,333.665L723.66,327.966L723.653,327.955L723.66,327.951L723.66,322.235L723.653,322.223L723.66,322.219L723.66,316.549L723.653,316.537L723.66,316.533L723.66,310.784L723.653,310.772L723.66,310.768L723.66,305.096L723.653,305.084L723.66,305.08L723.66,299.351L723.653,299.339L723.66,299.335L723.66,293.636L723.653,293.625L723.66,293.621L723.66,287.905L723.653,287.893L723.66,287.889L723.66,282.219L723.653,282.207L723.66,282.203L723.66,276.454L723.653,276.442L723.66,276.438L723.66,270.766L723.653,270.754L723.66,270.75L723.66,266.012L725.399,266.012L725.399,269.738ZM725.399,433.292L725.399,435.598L731.014,432.331L731.014,430.024L725.399,433.292ZM725.399,427.56L725.399,429.883L731.014,426.616L731.014,424.293L725.399,427.56ZM725.399,421.874L725.399,424.152L731.014,420.885L731.014,418.607L725.399,421.874ZM725.399,416.109L725.399,418.466L731.014,415.199L731.014,412.842L725.399,416.109ZM725.399,410.421L725.399,412.701L731.014,409.434L731.014,407.154L725.399,410.421ZM725.399,404.683L725.399,407.013L731.014,403.746L731.014,401.416L725.399,404.683ZM725.399,398.968L725.399,401.275L731.014,398.008L731.014,395.701L725.399,398.968ZM725.399,393.236L725.399,395.56L731.014,392.293L731.014,389.969L725.399,393.236ZM725.399,387.55L725.399,389.828L731.014,386.561L731.014,384.283L725.399,387.55ZM725.399,381.786L725.399,384.142L731.014,380.875L731.014,378.519L725.399,381.786ZM725.399,376.098L725.399,378.377L731.014,375.11L731.014,372.831L725.399,376.098ZM725.399,370.385L725.399,372.69L731.014,369.423L731.014,367.118L725.399,370.385ZM725.399,364.67L725.399,366.977L731.014,363.71L731.014,361.403L725.399,364.67ZM725.399,358.938L725.399,361.262L731.014,357.995L731.014,355.671L725.399,358.938ZM725.399,353.252L725.399,355.53L731.014,352.263L731.014,349.985L725.399,353.252ZM725.399,347.487L725.399,349.844L731.014,346.577L731.014,344.22L725.399,347.487ZM725.399,341.8L725.399,344.079L731.014,340.812L731.014,338.533L725.399,341.8ZM725.399,336.061L725.399,338.392L731.014,335.125L731.014,332.794L725.399,336.061ZM725.399,330.347L725.399,332.653L731.014,329.386L731.014,327.08L725.399,330.347ZM725.399,324.615L725.399,326.938L731.014,323.671L731.014,321.348L725.399,324.615ZM725.399,318.929L725.399,321.207L731.014,317.94L731.014,315.662L725.399,318.929ZM725.399,313.164L725.399,315.521L731.014,312.254L731.014,309.897L725.399,313.164ZM725.399,307.476L725.399,309.756L731.014,306.489L731.014,304.209L725.399,307.476ZM725.399,301.731L725.399,304.068L731.014,300.801L731.014,298.464L725.399,301.731ZM725.399,296.017L725.399,298.323L731.014,295.056L731.014,292.749L725.399,296.017ZM725.399,290.285L725.399,292.608L731.014,289.341L731.014,287.018L725.399,290.285ZM725.399,284.599L725.399,286.877L731.014,283.61L731.014,281.332L725.399,284.599ZM725.399,278.834L725.399,281.191L731.014,277.924L731.014,275.567L725.399,278.834ZM725.399,273.146L725.399,275.426L731.014,272.159L731.014,269.879L725.399,273.146Z" style="fill:rgb(54,88,116);"/>
                    </g>
                </g>
            </g>
        </g>
        <g id="BottomCurveClip" transform="matrix(2.26991,0,0,3.66379,-830.154,-1264.33)">
            <path d="M615.407,467.735C628.966,465.388 642.92,464.173 657.156,464.173C671.392,464.173 685.347,465.388 698.906,467.735C685.231,466.3 671.295,465.566 657.156,465.566C643.018,465.566 629.081,466.3 615.407,467.735Z" style="fill:none;"/>
            <clipPath id="_clip14">
                <path d="M615.407,467.735C628.966,465.388 642.92,464.173 657.156,464.173C671.392,464.173 685.347,465.388 698.906,467.735C685.231,466.3 671.295,465.566 657.156,465.566C643.018,465.566 629.081,466.3 615.407,467.735Z"/>
            </clipPath>
            <g clip-path="url(#_clip14)">
                <path id="BottomCurve" d="M615.407,467.735C628.966,465.388 642.92,464.173 657.156,464.173C671.392,464.173 685.347,465.388 698.906,467.735C685.231,466.3 671.295,465.566 657.156,465.566C643.018,465.566 629.081,466.3 615.407,467.735Z" style="fill:rgb(0,66,98);stroke:white;stroke-width:0.12px;"/>
            </g>
            <path d="M615.407,467.735C628.966,465.388 642.92,464.173 657.156,464.173C671.392,464.173 685.347,465.388 698.906,467.735C685.231,466.3 671.295,465.566 657.156,465.566C643.018,465.566 629.081,466.3 615.407,467.735Z" style="fill:none;stroke:white;stroke-width:0.12px;"/>
        </g>
        <g id="DroneClip" transform="matrix(0.373003,-0.00107489,0.00107489,0.373003,512.256,236.836)">
            <path d="M-1.222,650L-1.222,0L800,0L800,650L-1.222,650ZM487.42,400.435L487.793,263.829L424.301,217.223L391.357,253.083L391.166,329.395L386.346,327.56L386.483,279.764L340.089,266.653L339.703,400.435L487.42,400.435ZM533.145,163.906C528.225,160.93 523.193,158.11 518.061,155.457L518.141,124.327L555.392,124.456L555.473,106.154L518.256,79.887L518.26,78.528L491.327,78.361L491.325,79.265L409.148,105.442L392.208,123.983L410.881,124.015L410.873,126.918C407.292,126.76 403.677,126.675 400.044,126.664C375.129,126.592 351.02,130.047 328.186,136.558L328.186,163.909C350.816,156.721 374.942,152.872 399.968,152.944C403.597,152.955 407.207,153.047 410.797,153.221L410.784,157.721L403.913,157.701L417.47,181.801C417.365,182.188 417.219,182.533 417.015,182.77C415.824,184.155 412.359,184.817 410.575,187.263C406.907,192.291 408.011,199.351 413.039,203.018C418.067,206.686 425.127,205.582 428.794,200.554C429.072,200.174 429.322,199.782 429.545,199.38C429.783,199.012 429.921,198.575 429.923,198.105C429.926,196.797 428.868,195.732 427.56,195.728C426.67,195.726 425.893,196.215 425.486,196.939L425.479,196.935C425.331,197.218 425.16,197.495 424.965,197.761C422.839,200.675 418.747,201.316 415.832,199.189C412.918,197.063 412.278,192.971 414.404,190.056C415.191,188.977 416.261,188.245 417.415,187.779C420.174,186.666 422.434,185.971 422.447,183.868C422.451,183.298 422.454,182.793 422.456,182.348L436.456,157.795L429.447,157.774L429.455,154.865C451.047,157.635 471.719,163.339 491.054,171.561L490.382,400.435L517.428,400.435L517.984,185.127C523.105,188.15 528.111,191.353 533.001,194.736L533.145,194.836L533.145,163.906ZM416.083,153.535L416.071,157.736L424.16,157.759L424.17,154.247C421.488,153.965 418.792,153.727 416.083,153.535ZM491.136,143.433L491.312,83.462L422.103,105.478L488.039,105.705L487.98,124.147L429.544,124.047L429.532,128.412C450.978,130.908 471.625,136.026 491.136,143.433ZM416.159,127.205C418.869,127.379 421.568,127.595 424.246,127.852L424.257,124.038L416.168,124.024L416.159,127.205ZM518.244,84.605L518.189,105.742L548.101,105.861L518.244,84.605Z" style="fill:none;"/>
            <clipPath id="_clip15">
                <path d="M-1.222,650L-1.222,0L800,0L800,650L-1.222,650ZM487.42,400.435L487.793,263.829L424.301,217.223L391.357,253.083L391.166,329.395L386.346,327.56L386.483,279.764L340.089,266.653L339.703,400.435L487.42,400.435ZM533.145,163.906C528.225,160.93 523.193,158.11 518.061,155.457L518.141,124.327L555.392,124.456L555.473,106.154L518.256,79.887L518.26,78.528L491.327,78.361L491.325,79.265L409.148,105.442L392.208,123.983L410.881,124.015L410.873,126.918C407.292,126.76 403.677,126.675 400.044,126.664C375.129,126.592 351.02,130.047 328.186,136.558L328.186,163.909C350.816,156.721 374.942,152.872 399.968,152.944C403.597,152.955 407.207,153.047 410.797,153.221L410.784,157.721L403.913,157.701L417.47,181.801C417.365,182.188 417.219,182.533 417.015,182.77C415.824,184.155 412.359,184.817 410.575,187.263C406.907,192.291 408.011,199.351 413.039,203.018C418.067,206.686 425.127,205.582 428.794,200.554C429.072,200.174 429.322,199.782 429.545,199.38C429.783,199.012 429.921,198.575 429.923,198.105C429.926,196.797 428.868,195.732 427.56,195.728C426.67,195.726 425.893,196.215 425.486,196.939L425.479,196.935C425.331,197.218 425.16,197.495 424.965,197.761C422.839,200.675 418.747,201.316 415.832,199.189C412.918,197.063 412.278,192.971 414.404,190.056C415.191,188.977 416.261,188.245 417.415,187.779C420.174,186.666 422.434,185.971 422.447,183.868C422.451,183.298 422.454,182.793 422.456,182.348L436.456,157.795L429.447,157.774L429.455,154.865C451.047,157.635 471.719,163.339 491.054,171.561L490.382,400.435L517.428,400.435L517.984,185.127C523.105,188.15 528.111,191.353 533.001,194.736L533.145,194.836L533.145,163.906ZM416.083,153.535L416.071,157.736L424.16,157.759L424.17,154.247C421.488,153.965 418.792,153.727 416.083,153.535ZM491.136,143.433L491.312,83.462L422.103,105.478L488.039,105.705L487.98,124.147L429.544,124.047L429.532,128.412C450.978,130.908 471.625,136.026 491.136,143.433ZM416.159,127.205C418.869,127.379 421.568,127.595 424.246,127.852L424.257,124.038L416.168,124.024L416.159,127.205ZM518.244,84.605L518.189,105.742L548.101,105.861L518.244,84.605Z"/>
            </clipPath>
            <g clip-path="url(#_clip15)">
                <g id="Drone" transform="matrix(2.68092,0.00772567,-0.00772567,2.68092,-1371.51,-638.896)">
                    <g id="DroneProps" transform="matrix(0.373003,-0.00107489,0.00107489,0.373003,489.031,237.132)">
                        <path d="M228.587,391.681C228.992,394.215 228.774,396.985 227.843,399.886C224.007,411.834 209.513,421.501 195.495,421.461C191.656,421.45 188.248,420.711 185.402,419.4C187.136,419.716 188.979,419.885 190.919,419.89C206.871,419.936 223.366,408.938 227.729,395.346C228.129,394.101 228.413,392.877 228.587,391.681ZM169.22,417.806C167.382,414.251 167.024,409.904 168.529,405.216C172.365,393.268 186.859,383.601 200.876,383.642C201.85,383.644 202.797,383.694 203.713,383.788C188.783,385.056 174.101,395.495 170.021,408.203C168.928,411.606 168.699,414.852 169.22,417.806ZM191.811,391.575C188.351,394.128 185.707,397.26 184.444,400.647C181.959,407.316 185.554,413.03 192.759,415.286C184.158,414.254 179.393,408.542 181.951,401.68C183.444,397.674 187.136,394.074 191.811,391.575ZM81.724,374.305C76.843,393.791 92.553,409.339 117.828,409.412C131.009,409.45 144.293,405.272 155.068,398.505C143.936,407.861 128.693,413.939 113.702,413.896C89.008,413.825 74.288,397.173 80.85,376.734C81.111,375.918 81.403,375.109 81.724,374.305ZM156.39,374.703C159.132,377.667 159.975,381.623 158.287,385.958C154.732,395.095 141.278,402.483 128.262,402.445C123.262,402.431 119.049,401.323 115.958,399.444C118.807,400.478 122.218,401.063 126.053,401.074C139.843,401.113 153.925,393.728 157.481,384.591C158.92,380.892 158.416,377.47 156.39,374.703ZM116.796,381.643C118.46,386.216 123.788,389.856 131.398,390.905C136.474,391.604 141.727,391.034 146.342,389.521C141.379,392.497 135.046,393.997 129.146,393.185C121.388,392.116 116.663,387.363 116.796,381.643ZM102.152,393.366C97.533,386.604 96.246,377.834 99.318,368.266C106.147,346.994 131.952,329.783 156.909,329.855C166.759,329.883 175.014,332.6 180.978,337.186C175.398,334.615 168.649,333.159 161.026,333.137C134.585,333.061 107.574,350.269 100.745,371.54C98.148,379.63 98.841,387.15 102.152,393.366ZM129.823,374.587C129.254,371.542 129.923,368.004 131.989,364.553C136.527,356.974 146.098,352.667 153.349,354.942C153.816,355.089 154.262,355.259 154.687,355.451C146.687,353.842 136.959,358.385 132.31,366.149C130.61,368.989 129.809,371.893 129.823,374.587ZM316.868,330.316C318.125,333.581 318.225,337.399 316.916,341.476C313.081,353.423 298.586,363.091 284.569,363.05C283.671,363.048 282.796,363.005 281.945,362.925C296.957,361.749 311.775,351.266 315.876,338.49C316.795,335.628 317.103,332.877 316.868,330.316ZM140.416,347.369C145.416,343.568 151.346,341.257 157.182,341.274C168.162,341.306 175.151,349.567 174.257,360.443C173.378,351.045 165.529,344.226 154.181,344.194C149.468,344.18 144.744,345.338 140.416,347.369ZM98.238,359.372C98.253,355.345 99.242,351.137 101.31,346.9C110.724,327.608 138.969,314.981 164.345,318.718C181.676,321.271 193.215,330.803 195.789,342.735C191.497,332.782 180.464,325.099 164.916,322.809C139.032,318.996 110.374,331.563 100.96,350.855C99.561,353.722 98.665,356.577 98.238,359.372ZM277.008,354.874C274.208,352.309 273.138,348.444 274.524,344.128C276.99,336.445 286.312,330.228 295.326,330.254C296.155,330.256 296.952,330.311 297.714,330.415C288.337,331.469 279.257,338.064 276.692,346.053C275.646,349.313 275.831,352.348 277.008,354.874ZM285.853,326.559C289.846,323.464 295.024,321.495 300.104,321.51C308.28,321.533 313.414,326.685 312.458,333.375C311.651,327.464 306.253,323.257 298.372,323.234C294.059,323.222 289.685,324.464 285.853,326.559ZM276.174,328.892C281.549,318.773 294.411,311.109 306.895,311.145C314.626,311.167 320.607,314.138 323.773,318.8C319.926,315.605 314.442,313.695 307.836,313.676C295.76,313.641 283.373,319.935 276.174,328.892ZM233.202,309.5C225.047,300.578 222.268,287.594 226.9,273.167C235.495,246.393 266.383,224.724 295.831,224.809C296.617,224.811 297.395,224.829 298.159,224.862C269.396,225.927 239.518,248.277 230.707,275.721C226.556,288.651 227.798,300.48 233.202,309.5ZM269.151,260.113C262.979,264.612 258.082,270.782 255.896,277.593C252.306,288.775 257.118,298.277 266.913,301.513C254.767,300.32 248.075,290.669 251.826,278.985C254.365,271.078 261.079,264.128 269.151,260.113ZM318.303,263.001C318.686,265.839 318.402,268.949 317.356,272.206C313.092,285.487 297.772,296.234 283.166,296.192C278.159,296.178 273.881,294.897 270.592,292.685C273.375,293.81 276.587,294.431 280.146,294.442C295.88,294.487 312.491,282.573 317.217,267.853C317.749,266.197 318.107,264.576 318.303,263.001ZM306.759,217.434C307.506,217.398 308.253,217.38 308.998,217.382C331.311,217.447 344.137,234.89 337.62,256.31C333.67,269.295 323.513,280.78 311.157,287.797C321.111,280.381 329.088,269.923 332.615,258.329C339.249,236.522 327.722,218.635 306.759,217.434ZM265.24,284.762C264.169,282.232 264.047,279.185 265.098,275.909C267.897,267.192 277.952,260.138 287.539,260.166C287.989,260.167 288.429,260.184 288.86,260.216C278.958,260.843 268.872,268.393 265.908,277.625C265.093,280.164 264.897,282.579 265.24,284.762ZM305.134,260.436C306.808,261.241 308.062,262.772 308.638,264.986C310.17,270.879 306.325,279.394 300.057,283.99C299.763,284.206 299.469,284.409 299.176,284.6C305.397,279.51 309.071,270.721 307.448,264.481C307.001,262.764 306.198,261.41 305.134,260.436ZM242.221,282.659C241.779,278.496 242.254,273.976 243.771,269.252C250.333,248.813 273.911,232.272 296.391,232.336C304.776,232.361 311.832,234.692 317.042,238.666C312.419,236.514 306.949,235.314 300.805,235.296C276.589,235.226 251.024,253.562 243.751,276.217C243.047,278.407 242.541,280.559 242.221,282.659Z" style="fill:rgb(54,88,116);"/>
                    </g>
                    <g id="DroneBtm" transform="matrix(1,0,0,1,-2,-2)">
                        <path d="M544.395,376.554C549.965,374.493 567.751,373.073 576.293,367.319C584.835,361.565 593.211,347.173 596.893,342.436C598.986,339.742 600.803,339.903 600.416,341.857C599.625,345.85 589.699,360.871 589.385,364.971C589.159,367.905 598.347,365.223 599.188,365.98C600.028,366.736 596.608,368.759 594.89,369.557C592.005,370.897 585.202,370.678 581.359,373.357C577.274,376.206 571.581,385.175 568.965,387.32C567.746,388.319 566.997,387.751 566.716,386.484C566.296,384.587 573.033,380.042 569.145,378.805C565.379,377.607 548.538,381.755 543.396,380.02C542.092,379.58 543.105,377.031 544.395,376.554Z" style="fill:rgb(54,88,116);"/>
                    </g>
                    <g id="DroneMid" transform="matrix(1,0,0,1,-1,-1)">
                        <path d="M544.054,376.395C549.623,374.335 567.751,373.073 576.293,367.319C584.835,361.565 592.709,347.371 596.391,342.633C598.484,339.94 600.803,339.903 600.416,341.857C599.625,345.85 589.699,360.871 589.385,364.971C589.159,367.905 597.02,366.302 598.67,365.318C599.642,364.738 596.608,368.759 594.89,369.557C592.005,370.897 585.202,370.678 581.359,373.357C577.274,376.206 571.581,385.175 568.965,387.32C567.746,388.319 565.971,385.912 566.875,385.169C568.198,384.08 573.033,380.042 569.145,378.805C565.379,377.607 548.538,381.755 543.396,380.02C542.092,379.58 542.763,376.873 544.054,376.395Z" style="fill:white;"/>
                    </g>
                    <g id="DroneTop" transform="matrix(0.373003,-0.00107489,0.00107489,0.373003,489.031,237.132)">
                        <path d="M281.59,286.446C283.595,282.809 281.678,281.348 280.562,277.826C279.696,275.093 286.162,271.378 289.252,271.701C292.342,272.023 298.664,277.839 297.942,280.781C297.929,280.831 297.913,280.882 297.891,280.933C297.882,281.154 297.853,281.383 297.806,281.62C295.654,292.32 268.927,332.514 268.052,343.501C267.606,349.109 279.307,346.195 286.876,344.798C289.485,343.48 283.369,340.974 286.896,340.532C290.04,340.137 290.521,338.583 292.417,339.77C293.407,340.39 294.482,342.559 293.3,345.862C292.735,348.741 286.637,354.06 282.778,355.839C275.033,359.409 256.796,358.769 246.473,365.923C235.497,373.529 221.408,395.267 214.379,400.998C211.551,403.304 204.561,402.747 202.835,401.307C201.744,400.623 201.425,399.617 201.117,398.635C200.614,397.031 201.296,394.765 202.212,393.248C203.406,391.272 203.065,396.746 206.023,395.796C211.715,390.284 221.425,382.92 213.685,380.433C204.837,377.591 168.984,385.698 151.012,384.566C150.846,384.605 150.686,384.626 150.531,384.63C134.2,385.061 137.397,373.13 139.064,369.699C140.838,366.047 145.868,363.718 149.516,364.678C151.848,365.292 150.304,367.706 150.828,369.884C170.487,365.692 212.572,363.33 232.937,349.696C253.65,335.83 271.102,302.185 281.59,286.446Z" style="fill:rgb(54,88,116);"/>
                    </g>
                </g>
            </g>
        </g>
    </g>
</svg>
